<svg width="23" height="23" viewBox="0 0 23 23" fill="none" xmlns="http://www.w3.org/2000/svg">
<g clip-path="url(#clip0_129_86)">
<path d="M18.2083 0H4.79167C2.14571 0 0 2.14571 0 4.79167V18.2083C0 20.8543 2.14571 23 4.79167 23H18.2083C20.8552 23 23 20.8543 23 18.2083V4.79167C23 2.14571 20.8552 0 18.2083 0ZM15.3333 6.70833H13.4895C12.9001 6.70833 12.4583 6.94983 12.4583 7.56029V8.625H15.3333L15.1052 11.5H12.4583V19.1667H9.58333V11.5H7.66667V8.625H9.58333V6.78212C9.58333 4.84437 10.603 3.83333 12.9001 3.83333H15.3333V6.70833Z" fill="#EBE5D9"/>
</g>
<defs>
<clipPath id="clip0_129_86">
<rect width="23" height="23" fill="white"/>
</clipPath>
</defs>
</svg>
