<svg width="23" height="24" viewBox="0 0 23 24" fill="none" xmlns="http://www.w3.org/2000/svg">
<g clip-path="url(#clip0_129_94)">
<path d="M18.2083 0.25H4.79167C2.14571 0.25 0 2.39571 0 5.04167V18.4583C0 21.1043 2.14571 23.25 4.79167 23.25H18.2083C20.8552 23.25 23 21.1043 23 18.4583V5.04167C23 2.39571 20.8552 0.25 18.2083 0.25ZM8.30587 16.2225C5.83242 16.2225 3.83333 14.2225 3.83333 11.75C3.83333 9.2775 5.83242 7.27746 8.30587 7.27746C9.51337 7.27746 10.5225 7.71829 11.3026 8.44663L10.0884 9.61579C9.75583 9.29667 9.17412 8.92579 8.30587 8.92579C6.77925 8.92579 5.53342 10.1908 5.53342 11.75C5.53342 13.3092 6.77925 14.5742 8.30587 14.5742C10.0759 14.5742 10.74 13.3025 10.8426 12.6451H8.30587V11.1117H12.5283C12.5676 11.335 12.5992 11.5593 12.5992 11.8525C12.5983 14.4075 10.8867 16.2225 8.30587 16.2225ZM19.1667 12.3892H17.25V14.3059H15.9716V12.3892H14.0549V11.1117H15.9716V9.19508H17.25V11.1117H19.1667V12.3892Z" fill="#EBE5D9"/>
</g>
<defs>
<clipPath id="clip0_129_94">
<rect width="23" height="24" fill="white"/>
</clipPath>
</defs>
</svg>
