<svg id="Layer_1" data-name="Layer 1" xmlns="http://www.w3.org/2000/svg" viewBox="0 0 333.22 353.41"><defs><style>.cls-1{fill:#523719;}</style></defs><path class="cls-1" d="M695.05,270.82c16.32,90.95-6.81,132-20.41,141.09C691,416,703.21,442,676,457.11c-9.52,2.74-27.2,0-29.92-19.17-2.61-18.45,12.7-25.12,19-26C626,336.3,545.44,326.52,511.44,331.09v35.62c72.9-8.77,112.88,35.61,122.4,58.9-81.6,30.68-95.2,100-95.2,138.34h31.28c9.52-89,47.6-91.77,76.16-104.1-10.88,88.77,47.15,139.26,77.53,153.42,1.81-2.28,4.08-11.78,9.52-31.5-49-20.82-54-84.48-51.69-113.7,43.53,34,136,15.07,163.21-19.18l-23.12-23.28c-69.36,56.16-118.32,15.07-122.4,8.22,53-65.75,34-139.72,29.92-174C726.78,259.86,716.81,262.05,695.05,270.82Z" transform="translate(-511.44 -259.86)"/></svg>