<svg width="23" height="24" viewBox="0 0 23 24" fill="none" xmlns="http://www.w3.org/2000/svg">
<g clip-path="url(#clip0_129_88)">
<path d="M18.2083 0.5H4.79167C2.14571 0.5 0 2.64571 0 5.29167V18.7083C0 21.3543 2.14571 23.5 4.79167 23.5H18.2083C20.8552 23.5 23 21.3543 23 18.7083V5.29167C23 2.64571 20.8552 0.5 18.2083 0.5ZM7.66667 18.7083H4.79167V8.16667H7.66667V18.7083ZM6.22917 6.9515C5.30342 6.9515 4.55208 6.19442 4.55208 5.261C4.55208 4.32758 5.30342 3.5705 6.22917 3.5705C7.15492 3.5705 7.90625 4.32758 7.90625 5.261C7.90625 6.19442 7.15587 6.9515 6.22917 6.9515ZM19.1667 18.7083H16.2917V13.3378C16.2917 10.1102 12.4583 10.3545 12.4583 13.3378V18.7083H9.58333V8.16667H12.4583V9.85813C13.7962 7.37988 19.1667 7.19683 19.1667 12.231V18.7083Z" fill="#EBE5D9"/>
</g>
<defs>
<clipPath id="clip0_129_88">
<rect width="23" height="24" fill="white"/>
</clipPath>
</defs>
</svg>
