<svg width="146" height="90" viewBox="0 0 146 90" fill="none" xmlns="http://www.w3.org/2000/svg">
<g clip-path="url(#clip0_132_97)">
<path d="M43.4805 68.6801V56.39H48.2805C49.2227 56.3653 50.1597 56.539 51.0305 56.9C51.7499 57.2047 52.3625 57.7164 52.7905 58.3701C53.2113 59.0619 53.4231 59.8606 53.4005 60.67C53.4247 61.4765 53.2126 62.2724 52.7905 62.96C52.3613 63.615 51.7493 64.1296 51.0305 64.4401C50.1597 64.8011 49.2227 64.9748 48.2805 64.95H44.4505L45.2405 64.1301V68.6801H43.4805ZM45.2405 64.3101L44.4505 63.4301H48.2205C49.1309 63.489 50.0342 63.235 50.7805 62.71C51.0526 62.4445 51.2689 62.1273 51.4166 61.7769C51.5642 61.4266 51.6403 61.0502 51.6403 60.67C51.6403 60.2898 51.5642 59.9135 51.4166 59.5632C51.2689 59.2128 51.0526 58.8956 50.7805 58.6301C50.0342 58.1051 49.1309 57.851 48.2205 57.91H44.4505L45.2405 57.04V64.3101Z" fill="#523513"/>
<path d="M56.8604 68.6801V56.39H61.6204C62.5627 56.3653 63.4996 56.539 64.3704 56.9C65.0898 57.2047 65.7024 57.7164 66.1304 58.3701C66.5512 59.0619 66.763 59.8606 66.7404 60.67C66.7645 61.4765 66.5525 62.2724 66.1304 62.96C65.7024 63.6137 65.0898 64.1254 64.3704 64.4301C63.5026 64.8047 62.5655 64.9922 61.6204 64.98H57.7903L58.5804 64.17V68.72L56.8604 68.6801ZM58.6204 64.3101L57.8304 63.45H61.6204C62.5326 63.5119 63.4379 63.2538 64.1804 62.72C64.4635 62.4717 64.6877 62.1633 64.8365 61.8173C64.9853 61.4712 65.0549 61.0964 65.0403 60.72C65.0578 60.3433 64.9895 59.9676 64.8405 59.6211C64.6915 59.2746 64.4658 58.9665 64.1804 58.72C63.4366 58.1898 62.5314 57.9353 61.6204 58.0001H57.8503L58.6404 57.1301L58.6204 64.3101ZM65.0804 68.6801L61.9504 64.22H63.8304L66.9904 68.6801H65.0804Z" fill="#523513"/>
<path d="M76.0502 68.8201C75.1576 68.828 74.2717 68.665 73.4402 68.3401C72.665 68.0449 71.9574 67.5959 71.3602 67.0201C70.7775 66.4512 70.315 65.7711 70.0002 65.0201C69.6641 64.2298 69.4939 63.3789 69.5002 62.5201C69.493 61.6644 69.6632 60.8166 70.0002 60.0301C70.3131 59.278 70.7758 58.5975 71.3602 58.0301C71.9577 57.4571 72.6607 57.0054 73.4302 56.7001C74.2666 56.3815 75.1552 56.2221 76.0502 56.2301C76.9349 56.2184 77.8137 56.3745 78.6402 56.6901C79.4112 56.988 80.115 57.4368 80.7102 58.0101C81.2982 58.5766 81.7644 59.2572 82.0802 60.0101C82.7286 61.6138 82.7286 63.4065 82.0802 65.0101C81.7644 65.7631 81.2982 66.4436 80.7102 67.0101C80.1118 67.577 79.4087 68.022 78.6402 68.3201C77.8164 68.6494 76.9374 68.8191 76.0502 68.8201V68.8201ZM76.0502 67.2501C76.6972 67.2596 77.3396 67.1406 77.9402 66.9001C78.5075 66.6751 79.0217 66.3345 79.4502 65.9001C79.8784 65.4703 80.2182 64.9607 80.4502 64.4001C80.9301 63.1927 80.9301 61.8475 80.4502 60.6401C80.2182 60.0795 79.8784 59.5699 79.4502 59.1401C79.019 58.7089 78.5055 58.3689 77.9402 58.1401C76.7199 57.6739 75.3706 57.6739 74.1502 58.1401C73.5819 58.3686 73.0651 58.7087 72.6302 59.1401C72.1993 59.5677 71.8592 60.0779 71.6302 60.6401C71.1503 61.8475 71.1503 63.1927 71.6302 64.4001C71.8592 64.9623 72.1993 65.4725 72.6302 65.9001C73.0624 66.3348 73.58 66.6753 74.1502 66.9001C74.7541 67.1414 75.3999 67.2604 76.0502 67.2501V67.2501Z" fill="#523513"/>
<path d="M86.1299 68.6803V56.3902H90.9199C91.8655 56.3643 92.8059 56.5381 93.6799 56.9002C94.3993 57.2049 95.0119 57.7166 95.4399 58.3703C95.856 59.0641 96.0675 59.8614 96.0499 60.6702C96.0689 61.4761 95.8573 62.2706 95.4399 62.9602C95.0107 63.6152 94.3988 64.1298 93.6799 64.4403C92.8059 64.8023 91.8655 64.9761 90.9199 64.9502H87.0999L87.8799 64.1303V68.6803H86.1299ZM87.8799 64.3103L87.0999 63.4303H90.8699C91.7779 63.4952 92.6799 63.2405 93.4199 62.7102C93.6945 62.4462 93.913 62.1294 94.0623 61.7788C94.2115 61.4283 94.2884 61.0512 94.2884 60.6702C94.2884 60.2893 94.2115 59.9122 94.0623 59.5617C93.913 59.2111 93.6945 58.8943 93.4199 58.6303C92.6799 58.1 91.7779 57.8453 90.8699 57.9102H87.0999L87.8799 57.0402V64.3103Z" fill="#523513"/>
<path d="M99.5098 68.6797V56.3896H101.26V67.1497H107.92V68.6797H99.5098Z" fill="#523513"/>
<path d="M108.95 68.6797L114.52 56.3896H116.26L121.84 68.6797H120L115 57.3697H115.7L110.7 68.6797H108.95ZM111.33 65.5997L111.8 64.1996H118.72L119.23 65.5997H111.33Z" fill="#523513"/>
<path d="M128.13 68.8199C127.216 68.8251 126.307 68.6798 125.44 68.3898C124.703 68.1603 124.022 67.7788 123.44 67.2698L124.09 65.8998C124.623 66.337 125.229 66.6757 125.88 66.8998C126.606 67.1714 127.375 67.3103 128.15 67.3099C128.737 67.3257 129.322 67.2412 129.88 67.0599C130.276 66.9418 130.625 66.7043 130.88 66.3799C131.097 66.0924 131.21 65.7398 131.2 65.3799C131.205 65.193 131.169 65.0074 131.097 64.8351C131.025 64.6628 130.917 64.5077 130.78 64.3799C130.471 64.1012 130.106 63.89 129.71 63.7599C129.238 63.5884 128.753 63.4513 128.26 63.3499C127.74 63.2299 127.21 63.0899 126.67 62.9299C126.167 62.7823 125.681 62.5811 125.22 62.3298C124.787 62.09 124.419 61.7464 124.15 61.3298C123.864 60.8469 123.725 60.2908 123.75 59.7299C123.748 59.111 123.922 58.5041 124.25 57.9799C124.629 57.4088 125.168 56.9632 125.8 56.6998C126.642 56.3511 127.55 56.1874 128.46 56.2199C129.176 56.2187 129.889 56.3129 130.58 56.4999C131.232 56.6633 131.851 56.9373 132.41 57.3099L131.83 58.7098C131.32 58.3659 130.755 58.1091 130.16 57.9498C129.607 57.7951 129.035 57.7144 128.46 57.7098C127.879 57.6931 127.3 57.7812 126.75 57.9699C126.355 58.0996 126.008 58.3431 125.75 58.6699C125.542 58.961 125.433 59.3118 125.44 59.6699C125.436 59.8558 125.47 60.0406 125.541 60.2127C125.612 60.3848 125.717 60.5404 125.85 60.6699C126.159 60.9503 126.524 61.1617 126.92 61.2899C127.397 61.4508 127.881 61.5876 128.37 61.6998C128.9 61.8198 129.43 61.9599 129.96 62.1099C130.466 62.2593 130.956 62.4603 131.42 62.7098C131.851 62.951 132.215 63.2945 132.48 63.7098C132.766 64.1859 132.905 64.7354 132.88 65.2899C132.882 65.9023 132.708 66.5025 132.38 67.0198C131.995 67.5919 131.448 68.0373 130.81 68.2999C129.965 68.6642 129.051 68.8416 128.13 68.8199Z" fill="#523513"/>
<path d="M138.62 68.6797V57.9097H134.41V56.3896H144.57V57.9097H140.36V68.6797H138.62Z" fill="#523513"/>
<path d="M28.9996 89.3105V84.3105H27.0596V83.9805H31.3196V84.3304H29.3896V89.3304L28.9996 89.3105Z" fill="#523513"/>
<path d="M36.4304 85.2698C36.728 85.2653 37.0225 85.3304 37.2904 85.4598C37.5315 85.5908 37.7295 85.7888 37.8604 86.0298C38.0025 86.3223 38.0711 86.6449 38.0604 86.9698V89.3099H37.6804V86.9799C37.6949 86.6159 37.5737 86.2596 37.3404 85.9799C37.2076 85.8546 37.05 85.7587 36.8777 85.6984C36.7054 85.6381 36.5223 85.6147 36.3404 85.6299C36.0585 85.6216 35.7793 85.6871 35.5304 85.8199C35.3022 85.9408 35.1171 86.1294 35.0004 86.3599C34.8743 86.618 34.8126 86.9027 34.8204 87.1899V89.3199H34.4404V83.6299H34.8204V86.4299L34.7504 86.2999C34.8692 85.9942 35.083 85.7348 35.3604 85.5599C35.6771 85.3518 36.052 85.2501 36.4304 85.2698V85.2698Z" fill="#523513"/>
<path d="M43.6204 89.3398C43.2464 89.3549 42.8757 89.2649 42.5504 89.0798C42.2427 88.9152 41.9893 88.6652 41.8204 88.3598C41.6442 88.056 41.551 87.7111 41.5504 87.3598C41.5418 86.9909 41.6279 86.626 41.8004 86.2998C41.9628 86.0057 42.2011 85.7606 42.4904 85.5898C42.7908 85.4054 43.138 85.3116 43.4904 85.3198C43.8413 85.313 44.1873 85.4029 44.4904 85.5798C44.7813 85.7452 45.0176 85.992 45.1704 86.2898C45.3359 86.597 45.4218 86.9408 45.4204 87.2898V87.3498H41.8804V87.0498H45.2204L45.0604 87.1998C45.0725 86.9079 45.007 86.6181 44.8704 86.3598C44.7416 86.1186 44.552 85.9152 44.3204 85.7698C44.0783 85.6272 43.8014 85.5545 43.5204 85.5598C43.2426 85.5543 42.9688 85.627 42.7304 85.7698C42.4939 85.9091 42.3028 86.1141 42.1804 86.3598C42.0395 86.6204 41.9705 86.9137 41.9804 87.2098V87.2798C41.975 87.5842 42.0509 87.8845 42.2004 88.1498C42.3391 88.4004 42.5475 88.6053 42.8004 88.7398C43.0678 88.8828 43.3672 88.955 43.6704 88.9498C43.9172 88.9506 44.1619 88.9031 44.3904 88.8098C44.612 88.7187 44.8078 88.5744 44.9604 88.3898L45.1804 88.6398C45.0085 88.8595 44.7805 89.0289 44.5204 89.1298C44.2389 89.2633 43.932 89.3349 43.6204 89.3398V89.3398Z" fill="#523513"/>
<path d="M53.2402 89.3105V83.9804H55.1702C55.5672 83.9703 55.9621 84.0418 56.3303 84.1905C56.6333 84.323 56.8931 84.5378 57.0803 84.8105C57.2558 85.1145 57.3482 85.4594 57.3482 85.8105C57.3482 86.1615 57.2558 86.5064 57.0803 86.8105C56.896 87.0858 56.6353 87.3013 56.3303 87.4305C55.9629 87.5828 55.5679 87.6577 55.1702 87.6504H53.4603L53.6302 87.4604V89.4004L53.2402 89.3105ZM53.6302 87.3904L53.4603 87.2004H55.1702C55.6413 87.2336 56.1089 87.099 56.4902 86.8205C56.6418 86.6882 56.7612 86.523 56.8392 86.3376C56.9172 86.1521 56.9517 85.9513 56.9402 85.7505C56.9511 85.5482 56.9162 85.3461 56.8383 85.1592C56.7604 84.9722 56.6415 84.8052 56.4902 84.6704C56.1089 84.3919 55.6413 84.2573 55.1702 84.2904H53.4603L53.6302 84.1004V87.3904Z" fill="#523513"/>
<path d="M60.7197 89.3102V85.3102H61.0897V86.4102V86.2902C61.1868 85.987 61.3844 85.726 61.6498 85.5502C61.949 85.3631 62.2971 85.2691 62.6498 85.2802V85.6602H62.5598C62.3729 85.656 62.1873 85.6913 62.015 85.7636C61.8427 85.836 61.6876 85.9438 61.5598 86.0802C61.2915 86.4091 61.1559 86.8265 61.1797 87.2502V89.3302L60.7197 89.3102Z" fill="#523513"/>
<path d="M67.6204 89.3398C67.2468 89.3513 66.877 89.2615 66.5504 89.0798C66.2427 88.9152 65.9893 88.6652 65.8204 88.3598C65.6442 88.056 65.551 87.7111 65.5504 87.3598C65.5418 86.9909 65.6279 86.626 65.8004 86.2998C65.9628 86.0057 66.2011 85.7606 66.4904 85.5898C66.7908 85.4054 67.138 85.3116 67.4904 85.3198C67.8414 85.3119 68.1877 85.4019 68.4904 85.5798C68.7819 85.7477 69.0208 85.9936 69.1804 86.2898C69.3383 86.5995 69.4205 86.9422 69.4204 87.2898V87.3998H65.8804V87.0998H69.2104L69.0604 87.2498C69.069 86.9571 69 86.6673 68.8604 86.4098C68.7316 86.1686 68.542 85.9652 68.3104 85.8198C68.068 85.6822 67.7941 85.6098 67.5154 85.6098C67.2367 85.6098 66.9627 85.6822 66.7204 85.8198C66.4839 85.9592 66.2928 86.1641 66.1704 86.4098C66.0295 86.6704 65.9605 86.9638 65.9704 87.2598V87.3298C65.9649 87.6342 66.0409 87.9345 66.1904 88.1998C66.3291 88.4504 66.5375 88.6553 66.7904 88.7898C67.0614 88.9328 67.364 89.005 67.6704 88.9998C67.9139 88.9998 68.1551 88.9523 68.3804 88.8598C68.6035 88.7714 68.7999 88.6267 68.9504 88.4398L69.1704 88.6898C68.9985 88.9096 68.7705 89.0789 68.5104 89.1798C68.2284 89.2956 67.925 89.3502 67.6204 89.3398V89.3398Z" fill="#523513"/>
<path d="M72.1699 85.6301V85.3001H74.6199V85.6301H72.1699ZM72.9099 89.3101V84.6901C72.8923 84.5401 72.9088 84.388 72.9584 84.2453C73.0079 84.1026 73.0892 83.973 73.196 83.8662C73.3028 83.7593 73.4324 83.6781 73.5751 83.6286C73.7178 83.579 73.8699 83.5624 74.02 83.5801C74.1691 83.583 74.3172 83.6066 74.46 83.6501C74.5916 83.6862 74.712 83.755 74.8099 83.8501L74.6599 84.1401C74.5835 84.0593 74.4868 84.0006 74.3799 83.9701C74.2713 83.9291 74.156 83.9087 74.0399 83.9101C73.9369 83.9016 73.8332 83.916 73.7364 83.9523C73.6396 83.9886 73.552 84.0459 73.4799 84.1201C73.3367 84.2859 73.2648 84.5015 73.2799 84.7201V89.3101H72.9099Z" fill="#523513"/>
<path d="M79.2199 89.3398C78.8432 89.3511 78.4703 89.2614 78.14 89.0798C77.8343 88.9125 77.5814 88.6631 77.4099 88.3598C77.2421 88.053 77.1529 87.7095 77.15 87.3598C77.1414 86.9909 77.2275 86.626 77.4 86.2998C77.5569 86.0017 77.7964 85.7551 78.0899 85.5898C78.3903 85.4054 78.7376 85.3116 79.0899 85.3198C79.4408 85.313 79.7868 85.4029 80.0899 85.5798C80.3809 85.7452 80.6172 85.992 80.77 86.2898C80.9355 86.597 81.0215 86.9408 81.02 87.2898V87.3498H77.48V87.0498H80.82L80.6599 87.1998C80.6721 86.9079 80.6065 86.6181 80.4699 86.3598C80.3411 86.1186 80.1515 85.9152 79.92 85.7698C79.6778 85.6272 79.4009 85.5545 79.12 85.5598C78.8391 85.5556 78.5625 85.6281 78.32 85.7698C78.0884 85.9152 77.8988 86.1186 77.77 86.3598C77.6338 86.6221 77.565 86.9142 77.57 87.2098V87.2798C77.5691 87.5837 77.6448 87.8829 77.79 88.1498C77.9353 88.3987 78.1464 88.6029 78.4 88.7398C78.6669 88.884 78.9667 88.9564 79.27 88.9498C79.5168 88.9506 79.7614 88.9031 79.99 88.8098C80.2115 88.7187 80.4073 88.5744 80.56 88.3898L80.7799 88.6398C80.6039 88.8552 80.3771 89.0237 80.12 89.1298C79.8384 89.2633 79.5315 89.3349 79.2199 89.3398V89.3398Z" fill="#523513"/>
<path d="M86.0703 89.3405C85.72 89.3429 85.3751 89.2532 85.0703 89.0805C84.7646 88.9132 84.5118 88.6638 84.3403 88.3605C84.1725 88.0537 84.0832 87.7102 84.0803 87.3605C84.0748 86.9907 84.1643 86.6258 84.3403 86.3005C84.5118 85.9972 84.7646 85.7478 85.0703 85.5805C85.3765 85.4111 85.7204 85.3217 86.0703 85.3205C86.3743 85.3162 86.6752 85.3811 86.9503 85.5105C87.2088 85.6337 87.4296 85.8235 87.5903 86.0605L87.3003 86.2705C87.1719 86.0715 86.9875 85.9149 86.7703 85.8205C86.5507 85.7202 86.3118 85.669 86.0703 85.6705C85.7735 85.6651 85.4804 85.7375 85.2203 85.8805C84.9774 86.0214 84.777 86.2252 84.6403 86.4705C84.5029 86.747 84.4313 87.0517 84.4313 87.3605C84.4313 87.6693 84.5029 87.974 84.6403 88.2505C84.777 88.4958 84.9774 88.6996 85.2203 88.8405C85.4804 88.9835 85.7735 89.0559 86.0703 89.0505C86.3118 89.052 86.5507 89.0008 86.7703 88.9005C86.9875 88.8061 87.1719 88.6495 87.3003 88.4505L87.5903 88.6605C87.4296 88.8975 87.2088 89.0873 86.9503 89.2105C86.6694 89.3153 86.3695 89.3596 86.0703 89.3405V89.3405Z" fill="#523513"/>
<path d="M90.4297 85.6297V85.2997H92.8197V85.6297H90.4297ZM92.2597 89.3397C92.1116 89.3547 91.962 89.3364 91.8219 89.2863C91.6818 89.2361 91.5546 89.1553 91.4497 89.0497C91.3515 88.9421 91.276 88.8158 91.2279 88.6783C91.1798 88.5408 91.16 88.395 91.1697 88.2497V84.4297H91.5497V88.2197C91.5355 88.4334 91.6035 88.6444 91.7397 88.8097C91.813 88.8815 91.9011 88.9366 91.9977 88.9711C92.0944 89.0057 92.1974 89.0188 92.2997 89.0097C92.5269 89.0182 92.7487 88.9395 92.9197 88.7897L93.0797 89.0597C92.9709 89.1603 92.8411 89.2354 92.6997 89.2797C92.5565 89.3199 92.4084 89.3401 92.2597 89.3397Z" fill="#523513"/>
<path d="M101.24 89.3105H100.85V83.9805H104.45V84.3304H101.24V89.3105ZM101.24 86.5905H104.15V86.9805H101.24V86.5905Z" fill="#523513"/>
<path d="M108.07 84.3301C108.029 84.3315 107.989 84.3242 107.951 84.3087C107.913 84.2932 107.879 84.2698 107.85 84.2402C107.821 84.2113 107.798 84.1771 107.783 84.1393C107.767 84.1016 107.759 84.061 107.759 84.0201C107.759 83.9792 107.767 83.9387 107.783 83.901C107.798 83.8632 107.821 83.829 107.85 83.8002C107.879 83.7705 107.913 83.7471 107.951 83.7316C107.989 83.716 108.029 83.7087 108.07 83.7101C108.113 83.7091 108.155 83.7166 108.194 83.732C108.234 83.7475 108.27 83.7707 108.3 83.8002C108.329 83.8269 108.35 83.8597 108.364 83.896C108.378 83.9324 108.384 83.9714 108.38 84.0102C108.383 84.0519 108.378 84.0938 108.364 84.1333C108.35 84.1729 108.329 84.2092 108.3 84.2402C108.27 84.2696 108.234 84.2928 108.194 84.3082C108.155 84.3237 108.113 84.3311 108.07 84.3301ZM107.88 89.3301V85.3301H108.26V89.3301H107.88Z" fill="#523513"/>
<path d="M111.53 85.6297V85.2997H113.92V85.6297H111.53ZM113.35 89.3397C113.202 89.3506 113.054 89.3305 112.915 89.2806C112.775 89.2306 112.648 89.152 112.54 89.0497C112.347 88.8294 112.246 88.5426 112.26 88.2497V84.4297H112.62V88.2197C112.606 88.4334 112.674 88.6444 112.81 88.8097C112.882 88.8807 112.968 88.9354 113.063 88.9699C113.158 89.0044 113.26 89.018 113.36 89.0097C113.588 89.0203 113.81 88.9413 113.98 88.7897L114.15 89.0597C114.042 89.1603 113.912 89.2354 113.77 89.2797C113.634 89.3179 113.492 89.338 113.35 89.3397V89.3397Z" fill="#523513"/>
<path d="M25.7005 48.9804C26.8505 55.4004 25.2205 58.3004 24.2505 58.9804C25.4105 59.2704 26.2505 61.1104 24.3505 62.1704C24.1226 62.2445 23.8812 62.2672 23.6436 62.2368C23.4059 62.2064 23.178 62.1236 22.9761 61.9945C22.7743 61.8654 22.6037 61.6931 22.4764 61.4901C22.3492 61.287 22.2687 61.0584 22.2405 60.8204C22.2037 60.6082 22.2107 60.3907 22.261 60.1812C22.3114 59.9718 22.404 59.7748 22.5333 59.6025C22.6625 59.4302 22.8256 59.2861 23.0126 59.1791C23.1995 59.0721 23.4064 59.0045 23.6205 58.9804C22.5829 57.0593 20.997 55.4904 19.0648 54.4736C17.1326 53.4567 14.9415 53.0379 12.7705 53.2704V55.7904C17.9205 55.1704 20.7705 58.3004 21.4105 59.9504C19.3947 60.649 17.6551 61.9741 16.4461 63.7319C15.2371 65.4897 14.6219 67.5881 14.6905 69.7204H16.9005C17.5705 63.4304 20.2605 63.2404 22.2805 62.3704C21.9518 64.5204 22.3023 66.7193 23.2828 68.6606C24.2633 70.6019 25.8251 72.1889 27.7505 73.2004C28.0395 72.4818 28.2637 71.7389 28.4205 70.9804C24.9705 69.5104 24.6105 64.9804 24.7805 62.9804C27.8505 65.3804 34.3805 64.0404 36.3005 61.6204L34.6205 59.9004C29.7205 63.9004 26.2605 60.9604 25.9705 60.4804C29.7205 55.8304 28.3705 50.6104 28.0905 48.1904C27.2645 48.3551 26.4619 48.6204 25.7005 48.9804V48.9804Z" fill="#523513"/>
<path d="M0 87.9502H23.28" stroke="#523513" stroke-width="0.5" stroke-miterlimit="10"/>
<path d="M118.72 87.9502H142" stroke="#523513" stroke-width="0.5" stroke-miterlimit="10"/>
<path d="M145.7 47.0298V33.5598C113.12 11.9198 77.4002 15.4798 43.4902 29.7198C58.8002 26.1598 103.48 15.1298 145.7 47.0298Z" fill="#EDE7D9"/>
<path d="M0.339844 -0.0195312H145.82V28.7505C113.22 4.06049 63.9499 10.8904 63.9499 10.8904C63.9499 10.8904 29.2298 35.4205 0.339844 51.4005V-0.0195312Z" fill="#523513"/>
<path d="M0.339844 70.2297V51.1397C36.1398 1.96969 107.4 -4.2103 145.51 28.5297C88.8399 -10.2003 15.0498 30.1097 0.339844 70.2297Z" fill="#EDE7D9"/>
</g>
<defs>
<clipPath id="clip0_132_97">
<rect width="145.82" height="89.35" fill="white"/>
</clipPath>
</defs>
</svg>
