<svg id="Layer_1" data-name="Layer 1" xmlns="http://www.w3.org/2000/svg" viewBox="0 0 810.14 203.57"><defs><style>.cls-1,.cls-2{fill:#523719;}.cls-2{stroke:#603813;}.cls-2,.cls-3{stroke-miterlimit:10;}.cls-3{fill:none;stroke:#523719;stroke-width:6px;}</style></defs><path class="cls-1" d="M341.55,327.79c6.67,37.18-2.78,53.94-8.34,57.68,6.67,1.68,11.67,12.32.55,18.48-3.89,1.12-11.12,0-12.23-7.84-1.07-7.54,5.19-10.27,7.79-10.64-16-30.91-48.94-34.91-62.84-33V367c29.81-3.59,46.15,14.56,50,24.08C283.16,403.61,277.6,432,277.6,447.63h12.79c3.89-36.4,19.46-37.52,31.14-42.56-4.45,36.29,19.28,56.93,31.69,62.72.75-.93,1.67-4.82,3.9-12.88-20-8.51-22.06-34.53-21.13-46.48,17.79,13.89,55.6,6.16,66.72-7.84l-9.45-9.52c-28.36,23-48.38,6.16-50,3.36,21.68-26.88,13.9-57.12,12.23-71.12C354.52,323.31,350.44,324.2,341.55,327.79Z" transform="translate(-266.48 -323.31)"/><path class="cls-2" d="M418.17,499.55v-3.94h23.45v3.94h-9.45v26.37h-4.56V499.55Zm44.63,12.87v13.5h-4.43V495.61h4.37v11.28H463a6.52,6.52,0,0,1,2.44-2.92,7.71,7.71,0,0,1,4.29-1.08,8.38,8.38,0,0,1,4.09,1,6.52,6.52,0,0,1,2.72,2.87,10.31,10.31,0,0,1,1,4.74v14.46h-4.43V512a5.48,5.48,0,0,0-1.29-3.88,4.61,4.61,0,0,0-3.58-1.39,5.81,5.81,0,0,0-2.81.67,4.79,4.79,0,0,0-1.94,1.95A6.4,6.4,0,0,0,462.8,512.42Zm40.36,14a11.15,11.15,0,0,1-5.79-1.44,9.86,9.86,0,0,1-3.73-4.07,15.27,15.27,0,0,1,0-12.33,9.78,9.78,0,0,1,9.21-5.65,11,11,0,0,1,3.73.64,9.11,9.11,0,0,1,3.24,2,9.35,9.35,0,0,1,2.26,3.54,14.55,14.55,0,0,1,.83,5.26v1.56H494.84v-3.31h13.74a6.52,6.52,0,0,0-.71-3.09,5.39,5.39,0,0,0-2-2.15,5.54,5.54,0,0,0-3-.79,5.82,5.82,0,0,0-3.26.92,6.24,6.24,0,0,0-2.13,2.37,6.89,6.89,0,0,0-.74,3.15v2.59a8.66,8.66,0,0,0,.8,3.88,5.77,5.77,0,0,0,2.27,2.44,6.69,6.69,0,0,0,3.38.83,7,7,0,0,0,2.3-.36,4.88,4.88,0,0,0,1.79-1.09,4.68,4.68,0,0,0,1.15-1.79l4.19.75a7.52,7.52,0,0,1-1.8,3.24,8.72,8.72,0,0,1-3.24,2.15A12,12,0,0,1,503.16,526.38Zm70.89-.46V495.61h10.8a11.93,11.93,0,0,1,5.86,1.29,8.32,8.32,0,0,1,3.48,3.52,10.65,10.65,0,0,1,1.15,5,10.81,10.81,0,0,1-1.16,5,8.36,8.36,0,0,1-3.5,3.52,11.88,11.88,0,0,1-5.84,1.29h-7.43v-3.88h7a7.36,7.36,0,0,0,3.62-.77,4.76,4.76,0,0,0,2-2.13,7.5,7.5,0,0,0,0-6.11,4.63,4.63,0,0,0-2.05-2.08,7.66,7.66,0,0,0-3.68-.76h-5.74v26.39Zm40.22,0V503.18h4.28v3.62h.24a5.43,5.43,0,0,1,2.19-2.89,6.26,6.26,0,0,1,3.58-1.07c.28,0,.6,0,1,0a8.27,8.27,0,0,1,.91.07v4.23a8.06,8.06,0,0,0-1-.16,9,9,0,0,0-1.36-.11,5.82,5.82,0,0,0-2.8.67A5,5,0,0,0,618.7,512v13.89Zm38.9.46a11.15,11.15,0,0,1-5.79-1.44,9.8,9.8,0,0,1-3.73-4.07,15.27,15.27,0,0,1,0-12.33,9.81,9.81,0,0,1,9.21-5.65,11,11,0,0,1,3.73.64,9,9,0,0,1,3.24,2,9.48,9.48,0,0,1,2.27,3.54,14.79,14.79,0,0,1,.82,5.26v1.56H644.85v-3.31h13.74a6.52,6.52,0,0,0-.71-3.09,5.39,5.39,0,0,0-2-2.15,5.52,5.52,0,0,0-3-.79,5.82,5.82,0,0,0-3.26.92,6.16,6.16,0,0,0-2.13,2.37,6.89,6.89,0,0,0-.74,3.15v2.59a8.66,8.66,0,0,0,.8,3.88,5.77,5.77,0,0,0,2.27,2.44,6.69,6.69,0,0,0,3.38.83,7,7,0,0,0,2.3-.36,4.88,4.88,0,0,0,1.79-1.09,4.68,4.68,0,0,0,1.15-1.79l4.19.75a7.43,7.43,0,0,1-1.81,3.24,8.56,8.56,0,0,1-3.24,2.15A11.94,11.94,0,0,1,653.17,526.38Zm47.4-23.2v3.56H687.73v-3.56Zm-9.32,22.74V500.55a6.24,6.24,0,0,1,.93-3.53,5.7,5.7,0,0,1,2.47-2.12,8,8,0,0,1,3.35-.71,10,10,0,0,1,2.27.22,9.72,9.72,0,0,1,1.41.39l-1,3.57c-.2-.05-.47-.13-.79-.2a4.52,4.52,0,0,0-1.18-.13,2.92,2.92,0,0,0-2.31.79,3.44,3.44,0,0,0-.68,2.31v24.78Zm37.71.46a11.09,11.09,0,0,1-5.78-1.44,9.73,9.73,0,0,1-3.73-4.07,15.16,15.16,0,0,1,0-12.33,9.75,9.75,0,0,1,9.2-5.65,11,11,0,0,1,3.73.64,9.11,9.11,0,0,1,3.24,2,9.35,9.35,0,0,1,2.26,3.54,14.54,14.54,0,0,1,.84,5.26v1.56H720.64v-3.31h13.74a6.52,6.52,0,0,0-.71-3.09,5.39,5.39,0,0,0-2-2.15,5.54,5.54,0,0,0-3-.79,5.82,5.82,0,0,0-3.26.92,6.24,6.24,0,0,0-2.13,2.37,6.89,6.89,0,0,0-.74,3.15v2.59a8.66,8.66,0,0,0,.8,3.88,5.87,5.87,0,0,0,2.26,2.44,6.77,6.77,0,0,0,3.4.83,7,7,0,0,0,2.29-.36,5,5,0,0,0,1.79-1.09,4.7,4.7,0,0,0,1.16-1.79l4.18.75a7.42,7.42,0,0,1-1.8,3.24,8.72,8.72,0,0,1-3.24,2.15A12,12,0,0,1,729,526.38Zm38.16,0a10.5,10.5,0,0,1-5.68-1.5,9.92,9.92,0,0,1-3.65-4.16,13.92,13.92,0,0,1-1.27-6.07,13.69,13.69,0,0,1,1.31-6.11,10,10,0,0,1,3.67-4.16,10.29,10.29,0,0,1,5.58-1.49,10.65,10.65,0,0,1,4.61,1,8.19,8.19,0,0,1,3.27,2.67,8,8,0,0,1,1.5,4h-4.31a5.17,5.17,0,0,0-1.62-2.75,4.81,4.81,0,0,0-3.38-1.15,5.45,5.45,0,0,0-3.24,1,6.2,6.2,0,0,0-2.15,2.75,10.57,10.57,0,0,0-.77,4.2,10.93,10.93,0,0,0,.76,4.29,6.3,6.3,0,0,0,2.13,2.8,5.5,5.5,0,0,0,3.27,1,5.43,5.43,0,0,0,2.28-.46,4.57,4.57,0,0,0,1.73-1.34,5,5,0,0,0,1-2.11h4.31a8.24,8.24,0,0,1-4.65,6.67A10.42,10.42,0,0,1,767.12,526.38Zm38.6-23.2v3.56H793.3v-3.56Zm-9.08-5.44h4.42v21.5a3.83,3.83,0,0,0,.39,1.94,2,2,0,0,0,1,.88,4.14,4.14,0,0,0,1.34.22,5.15,5.15,0,0,0,.94-.08l.62-.12.8,3.66a7.71,7.71,0,0,1-1.1.3,8.58,8.58,0,0,1-1.78.17,7.69,7.69,0,0,1-3.25-.62,5.57,5.57,0,0,1-2.44-2,5.86,5.86,0,0,1-.93-3.42Zm59.2,28.18V495.61h18.8v3.94H860.42v9.23h12.87v3.92H860.42v13.22Zm34,0V503.18h4.42v22.74Zm2.23-26.24a2.83,2.83,0,0,1-2-.77,2.47,2.47,0,0,1-.82-1.87,2.44,2.44,0,0,1,.82-1.86,2.81,2.81,0,0,1,2-.79,2.75,2.75,0,0,1,2,.79,2.45,2.45,0,0,1,.83,1.86,2.48,2.48,0,0,1-.83,1.87A2.77,2.77,0,0,1,892.06,499.68Zm32.68,3.5v3.56H912.32v-3.56Zm-9.09-5.44h4.43v21.5a3.85,3.85,0,0,0,.38,1.94,2.09,2.09,0,0,0,1,.88,4.2,4.2,0,0,0,1.35.22,5,5,0,0,0,.93-.08l.63-.12.79,3.66a7.16,7.16,0,0,1-1.09.3,8.73,8.73,0,0,1-1.78.17,7.66,7.66,0,0,1-3.25-.62,5.6,5.6,0,0,1-2.45-2,5.94,5.94,0,0,1-.93-3.42Z" transform="translate(-266.48 -323.31)"/><path class="cls-1" d="M448.84,424a27.21,27.21,0,0,0,.41,5.19,5.92,5.92,0,0,0,1.53,3.06,7.35,7.35,0,0,0,3.36,1.63,37.21,37.21,0,0,0,5.6.51v2.14H427.15v-2.14a31.76,31.76,0,0,0,5.2-.82,5.51,5.51,0,0,0,2.95-1.73,5.94,5.94,0,0,0,1.22-3.36,46,46,0,0,0,.31-5.9V372.3a32.28,32.28,0,0,0-.31-5,5.16,5.16,0,0,0-1.32-2.95,5.92,5.92,0,0,0-3-1.63,33.62,33.62,0,0,0-5.09-.82v-2.34H457.8A46.6,46.6,0,0,1,473.38,362q7,2.44,10.59,6.41a18.36,18.36,0,0,1,4.38,12.22,20.24,20.24,0,0,1-3.06,10.79,21.27,21.27,0,0,1-8.14,7.74,29.55,29.55,0,0,1-8.66,2.95,63.51,63.51,0,0,1-11.71.92h-4c-1.08-.07-2.41-.14-4-.21Zm0-26q2,.21,3.36.3c.95.07,2,.11,3.16.11q20.25,0,20.26-17.11,0-9.06-5.6-13.23T452.61,364c-1.56,0-2.58.27-3.06.82s-.71,1.52-.71,3.15ZM577,436.55H558.23l-27.69-35.84-6.42.3v23a33.49,33.49,0,0,0,.31,5,6.56,6.56,0,0,0,1.53,3.16,6.68,6.68,0,0,0,3.15,1.63,42.62,42.62,0,0,0,5.4.61v2.14H502.33v-2.14a34.12,34.12,0,0,0,5.2-.82,5.55,5.55,0,0,0,3.05-1.73,6.62,6.62,0,0,0,1.33-3.36,46.29,46.29,0,0,0,.3-5.9V372.3a31.58,31.58,0,0,0-.3-4.89,5.77,5.77,0,0,0-1.33-3.05,5.93,5.93,0,0,0-3.05-1.63,34.12,34.12,0,0,0-5.2-.82v-2.34h32.08a46.29,46.29,0,0,1,15.27,2.34q6.83,2.25,10.08,6.11a14.9,14.9,0,0,1,3.16,5.5,21.07,21.07,0,0,1,1,6.62q0,7.94-5,12.52t-16,6.82L566.89,429a16.36,16.36,0,0,0,4.58,4,15.52,15.52,0,0,0,5.5,1.43Zm-52.85-39.81q4.08-.11,7-.31a49,49,0,0,0,5.29-.61,33.16,33.16,0,0,0,4.28-1.22,29.62,29.62,0,0,0,4-1.84,11.86,11.86,0,0,0,4.89-5.09,17.32,17.32,0,0,0,1.73-7.84q0-8.24-5.19-12T529.83,364c-2.31,0-3.84.31-4.59.92s-1.12,1.63-1.12,3.26Zm106.75-38.69a37.66,37.66,0,0,1,28.4,13,37.82,37.82,0,0,1,6.62,12.11,46.15,46.15,0,0,1,2.34,14.87,45.18,45.18,0,0,1-2.85,16.29A36.29,36.29,0,0,1,657.54,427a34.91,34.91,0,0,1-12,8.24,38.53,38.53,0,0,1-15.27,2.95,39.51,39.51,0,0,1-15.48-2.95,34.91,34.91,0,0,1-12-8.24A38.12,38.12,0,0,1,595,414.15a47,47,0,0,1-2.75-16.4,44,44,0,0,1,2.85-16.08,36.7,36.7,0,0,1,7.94-12.53A34.67,34.67,0,0,1,615.19,361,40.55,40.55,0,0,1,630.87,358.05Zm-1,4.07a19.74,19.74,0,0,0-9.16,2.24,23.16,23.16,0,0,0-7.64,6,22.43,22.43,0,0,0-3.16,5.09,51.61,51.61,0,0,0-2.34,6.72,50.48,50.48,0,0,0-1.53,7.63,67.53,67.53,0,0,0-.5,8.15,58.24,58.24,0,0,0,2.74,18.63q2.76,8.15,7.64,12.22A21.61,21.61,0,0,0,630.36,434a21.58,21.58,0,0,0,15.17-6.21q9.47-9.27,9.47-30.34a52.28,52.28,0,0,0-2.85-17.92q-2.76-7.84-7.74-12.12A22.25,22.25,0,0,0,629.85,362.12Zm76.3,61.9a27.21,27.21,0,0,0,.41,5.19,5.92,5.92,0,0,0,1.53,3.06,7.35,7.35,0,0,0,3.36,1.63,37.19,37.19,0,0,0,5.59.51v2.14H684.46v-2.14a31.76,31.76,0,0,0,5.2-.82,5.51,5.51,0,0,0,3-1.73,5.94,5.94,0,0,0,1.22-3.36,46,46,0,0,0,.31-5.9V372.3a32.28,32.28,0,0,0-.31-5,5.16,5.16,0,0,0-1.32-2.95,5.92,5.92,0,0,0-3-1.63,33.84,33.84,0,0,0-5.09-.82v-2.34h30.65A46.6,46.6,0,0,1,730.69,362q7,2.44,10.59,6.41a18.36,18.36,0,0,1,4.38,12.22,20.24,20.24,0,0,1-3.06,10.79,21.27,21.27,0,0,1-8.14,7.74,29.55,29.55,0,0,1-8.66,2.95,63.51,63.51,0,0,1-11.71.92h-4c-1.08-.07-2.41-.14-4-.21Zm0-26q2,.21,3.36.3c1,.07,2,.11,3.16.11q20.25,0,20.26-17.11,0-9.06-5.6-13.23T709.92,364c-1.56,0-2.58.27-3.06.82s-.71,1.52-.71,3.15Zm121.1,18.33-5.7,20.16H759.14v-2.14a29,29,0,0,0,5.09-.71,6,6,0,0,0,3-1.63,5.92,5.92,0,0,0,1.53-3.06,25,25,0,0,0,.41-5V372.3a25,25,0,0,0-.41-5,5.35,5.35,0,0,0-1.43-3.05,6.59,6.59,0,0,0-3.15-1.63,28,28,0,0,0-5.09-.72v-2.34h32.68v2.34a33.69,33.69,0,0,0-5.6.72,5.68,5.68,0,0,0-3.26,1.63,5.85,5.85,0,0,0-1.53,3.05,25.15,25.15,0,0,0-.4,5v55a9.19,9.19,0,0,0,.3,2.55,2.86,2.86,0,0,0,1.53,1.42,9.93,9.93,0,0,0,3,.71c1.29.07,3,.11,5.2.11h7.73a37.13,37.13,0,0,0,12.32-1.74,18.86,18.86,0,0,0,8.15-5.29,19.6,19.6,0,0,0,2.34-3.56q1.23-2.14,2.65-5.09Zm94.12,20.16H891.74v-2.14h2.55c.67-.07,1.22-.14,1.63-.21s.88-.23,1.22-.3a8.09,8.09,0,0,0,1-.51,3.64,3.64,0,0,0,1.22-1.22,3.08,3.08,0,0,0,.51-1.63q0-2.85-2.24-7.94l-4.89-11.1H862.42L857,425a23.63,23.63,0,0,0-.71,2.34,12.19,12.19,0,0,0-.2,2.24,4,4,0,0,0,1.83,3.57q1.83,1.21,6.11,1.22v2.14H840.93v-2.14a11.61,11.61,0,0,0,3.67-.71,7.78,7.78,0,0,0,3-2.55,33.59,33.59,0,0,0,3.26-5.7q1.83-3.76,4.58-10.18l24.13-57h2.25l29,66q1.43,3.25,2.45,5.19a14.26,14.26,0,0,0,2.24,3.05A6.36,6.36,0,0,0,918,433.9a15.45,15.45,0,0,0,3.36.51Zm-30.14-29.73-13.44-32.08-13.44,32.08Zm95.85-24h-2.85c-.48-1.7-1-3.19-1.42-4.48a16.15,16.15,0,0,0-1.53-3.46,14.65,14.65,0,0,0-1.84-2.86c-.67-.88-1.46-1.79-2.34-2.74a19.08,19.08,0,0,0-14.25-6.42,13.08,13.08,0,0,0-8.76,2.85,9.76,9.76,0,0,0-3.26,7.74,12.86,12.86,0,0,0,4,9q4,4.17,13,9.16,11.61,6.31,16.7,12.32A19.7,19.7,0,0,1,989.73,417a19.31,19.31,0,0,1-1.83,8.35,21.48,21.48,0,0,1-5,6.72,23.29,23.29,0,0,1-7.54,4.48,26.77,26.77,0,0,1-9.36,1.62,40.12,40.12,0,0,1-7-.61,29.08,29.08,0,0,1-6.72-2,24.27,24.27,0,0,0-3.16-.92,9,9,0,0,0-2.34-.41,2.82,2.82,0,0,0-2.24,1.12,4.65,4.65,0,0,0-1,2.75H941l-3.46-24.64h2.64q4.38,10.69,10,15.68A19.9,19.9,0,0,0,963.66,434q6.42,0,10.29-3.56a12,12,0,0,0,4-9.37,14.06,14.06,0,0,0-.51-4,8.91,8.91,0,0,0-1.22-3,26.85,26.85,0,0,0-6.52-6.72,79.76,79.76,0,0,0-10.59-6.93,63.89,63.89,0,0,1-8.35-5.09,30.89,30.89,0,0,1-5.7-5.29,19.9,19.9,0,0,1-3.15-5.7,19.55,19.55,0,0,1-1-6.42q0-9.67,6.72-15.07a20.63,20.63,0,0,1,6.31-3.56,19.06,19.06,0,0,1,6.82-1.32,26.54,26.54,0,0,1,6.11.71,41,41,0,0,1,6.42,1.83,16,16,0,0,0,3,1,10.42,10.42,0,0,0,2.24.3q2.85,0,3.66-3.86h2.45Zm43.83-18.33a52,52,0,0,0-8.05.51,10.8,10.8,0,0,0-5.09,2.14,11.69,11.69,0,0,0-3.16,4.58,52.15,52.15,0,0,0-2.14,7.63h-2.85l.72-19.75h65.57l.71,19.75h-2.85a42.72,42.72,0,0,0-2.24-7.63,10.86,10.86,0,0,0-3.06-4.58,10.22,10.22,0,0,0-5.09-2.14,52.78,52.78,0,0,0-8.14-.51H1049V424a25.66,25.66,0,0,0,.41,5.09,6.08,6.08,0,0,0,1.53,3.06,7.5,7.5,0,0,0,3.36,1.63,50.64,50.64,0,0,0,5.8.61v2.14h-33.8v-2.14a46.66,46.66,0,0,0,5.7-.61,6.25,6.25,0,0,0,3.26-1.73,6.41,6.41,0,0,0,1.53-3.57,34.36,34.36,0,0,0,.41-5.9V364.46Z" transform="translate(-266.48 -323.31)"/><line class="cls-3" x1="0.48" y1="190.73" x2="130.82" y2="190.73"/><line class="cls-3" x1="679.79" y1="190.73" x2="810.14" y2="190.73"/></svg>