<svg width="146" height="90" viewBox="0 0 146 90" fill="none" xmlns="http://www.w3.org/2000/svg">
<g clip-path="url(#clip0_132_97)">
<path d="M43.4805 68.6801V56.39H48.2805C49.2227 56.3653 50.1597 56.539 51.0305 56.9C51.7499 57.2047 52.3625 57.7164 52.7905 58.3701C53.2113 59.0619 53.4232 59.8606 53.4005 60.67C53.4247 61.4765 53.2126 62.2724 52.7905 62.96C52.3613 63.615 51.7493 64.1296 51.0305 64.4401C50.1597 64.8011 49.2227 64.9748 48.2805 64.95H44.4505L45.2405 64.1301V68.6801H43.4805ZM45.2405 64.3101L44.4505 63.4301H48.2205C49.1309 63.489 50.0342 63.235 50.7805 62.71C51.0526 62.4445 51.2689 62.1273 51.4166 61.7769C51.5642 61.4266 51.6403 61.0502 51.6403 60.67C51.6403 60.2898 51.5642 59.9135 51.4166 59.5632C51.2689 59.2128 51.0526 58.8956 50.7805 58.6301C50.0342 58.1051 49.1309 57.851 48.2205 57.91H44.4505L45.2405 57.04V64.3101Z" fill="black"/>
<path d="M56.8604 68.6801V56.39H61.6204C62.5627 56.3653 63.4996 56.539 64.3704 56.9C65.0898 57.2047 65.7024 57.7164 66.1304 58.3701C66.5512 59.0619 66.763 59.8606 66.7404 60.67C66.7645 61.4765 66.5525 62.2724 66.1304 62.96C65.7024 63.6137 65.0898 64.1254 64.3704 64.4301C63.5026 64.8048 62.5655 64.9922 61.6204 64.98H57.7903L58.5804 64.17V68.72L56.8604 68.6801ZM58.6204 64.3101L57.8304 63.45H61.6204C62.5326 63.5119 63.4379 63.2538 64.1804 62.72C64.4635 62.4717 64.6877 62.1633 64.8365 61.8173C64.9853 61.4712 65.0549 61.0964 65.0403 60.72C65.0578 60.3433 64.9895 59.9676 64.8405 59.6211C64.6915 59.2746 64.4658 58.9665 64.1804 58.72C63.4366 58.1898 62.5314 57.9353 61.6204 58.0001H57.8503L58.6404 57.1301L58.6204 64.3101ZM65.0804 68.6801L61.9504 64.22H63.8304L66.9904 68.6801H65.0804Z" fill="black"/>
<path d="M76.0502 68.8201C75.1576 68.828 74.2717 68.665 73.4402 68.3401C72.665 68.0449 71.9574 67.5959 71.3602 67.0201C70.7775 66.4512 70.315 65.7711 70.0002 65.0201C69.6641 64.2298 69.4939 63.3789 69.5002 62.5201C69.493 61.6644 69.6632 60.8166 70.0002 60.0301C70.3131 59.278 70.7758 58.5975 71.3602 58.0301C71.9577 57.4571 72.6607 57.0054 73.4302 56.7001C74.2666 56.3815 75.1552 56.2221 76.0502 56.2301C76.9349 56.2184 77.8137 56.3745 78.6402 56.6901C79.4112 56.988 80.115 57.4368 80.7102 58.0101C81.2982 58.5766 81.7644 59.2572 82.0802 60.0101C82.7286 61.6138 82.7286 63.4065 82.0802 65.0101C81.7644 65.7631 81.2982 66.4436 80.7102 67.0101C80.1118 67.577 79.4087 68.022 78.6402 68.3201C77.8164 68.6494 76.9374 68.8191 76.0502 68.8201ZM76.0502 67.2501C76.6972 67.2596 77.3396 67.1406 77.9402 66.9001C78.5075 66.6751 79.0217 66.3345 79.4502 65.9001C79.8784 65.4703 80.2182 64.9607 80.4502 64.4001C80.9301 63.1927 80.9301 61.8475 80.4502 60.6401C80.2182 60.0795 79.8784 59.5699 79.4502 59.1401C79.019 58.7089 78.5055 58.3689 77.9402 58.1401C76.7199 57.6739 75.3706 57.6739 74.1502 58.1401C73.5819 58.3686 73.0651 58.7087 72.6302 59.1401C72.1993 59.5677 71.8592 60.0779 71.6302 60.6401C71.1503 61.8475 71.1503 63.1927 71.6302 64.4001C71.8592 64.9623 72.1993 65.4725 72.6302 65.9001C73.0624 66.3348 73.58 66.6753 74.1502 66.9001C74.7541 67.1414 75.3999 67.2604 76.0502 67.2501Z" fill="black"/>
<path d="M86.1299 68.6803V56.3902H90.9199C91.8655 56.3643 92.8059 56.5381 93.6799 56.9002C94.3993 57.2049 95.0119 57.7166 95.4399 58.3703C95.856 59.0641 96.0675 59.8614 96.0499 60.6702C96.0689 61.4761 95.8573 62.2706 95.4399 62.9602C95.0107 63.6152 94.3988 64.1298 93.6799 64.4403C92.8059 64.8023 91.8655 64.9761 90.9199 64.9502H87.0999L87.8799 64.1303V68.6803H86.1299ZM87.8799 64.3103L87.0999 63.4303H90.8699C91.7779 63.4952 92.6799 63.2405 93.4199 62.7102C93.6945 62.4462 93.913 62.1294 94.0623 61.7788C94.2115 61.4283 94.2884 61.0512 94.2884 60.6702C94.2884 60.2893 94.2115 59.9122 94.0623 59.5617C93.913 59.2111 93.6945 58.8943 93.4199 58.6303C92.6799 58.1 91.7779 57.8453 90.8699 57.9102H87.0999L87.8799 57.0402V64.3103Z" fill="black"/>
<path d="M99.5098 68.6797V56.3896H101.26V67.1497H107.92V68.6797H99.5098Z" fill="black"/>
<path d="M108.95 68.6797L114.52 56.3896H116.26L121.84 68.6797H120L115 57.3697H115.7L110.7 68.6797H108.95ZM111.33 65.5997L111.8 64.1996H118.72L119.23 65.5997H111.33Z" fill="black"/>
<path d="M128.13 68.8199C127.216 68.8251 126.307 68.6798 125.44 68.3898C124.703 68.1603 124.022 67.7788 123.44 67.2698L124.09 65.8998C124.623 66.337 125.229 66.6757 125.88 66.8998C126.606 67.1714 127.375 67.3103 128.15 67.3099C128.737 67.3257 129.322 67.2412 129.88 67.0599C130.276 66.9418 130.625 66.7043 130.88 66.3799C131.097 66.0924 131.21 65.7398 131.2 65.3799C131.205 65.193 131.169 65.0074 131.097 64.8351C131.025 64.6628 130.917 64.5077 130.78 64.3799C130.471 64.1012 130.106 63.89 129.71 63.7599C129.238 63.5884 128.753 63.4513 128.26 63.3499C127.74 63.2299 127.21 63.0899 126.67 62.9299C126.167 62.7823 125.681 62.5811 125.22 62.3298C124.787 62.09 124.419 61.7464 124.15 61.3298C123.864 60.8469 123.725 60.2908 123.75 59.7299C123.748 59.111 123.922 58.5041 124.25 57.9799C124.629 57.4088 125.168 56.9632 125.8 56.6998C126.642 56.3511 127.55 56.1874 128.46 56.2199C129.176 56.2187 129.889 56.3129 130.58 56.4999C131.232 56.6633 131.851 56.9373 132.41 57.3099L131.83 58.7098C131.32 58.3659 130.755 58.1091 130.16 57.9498C129.607 57.7951 129.035 57.7144 128.46 57.7098C127.879 57.6931 127.3 57.7812 126.75 57.9699C126.355 58.0996 126.008 58.3431 125.75 58.6699C125.542 58.961 125.433 59.3118 125.44 59.6699C125.436 59.8558 125.47 60.0406 125.541 60.2127C125.612 60.3848 125.717 60.5404 125.85 60.6699C126.159 60.9503 126.524 61.1617 126.92 61.2899C127.397 61.4508 127.881 61.5876 128.37 61.6998C128.9 61.8198 129.43 61.9599 129.96 62.1099C130.466 62.2593 130.956 62.4603 131.42 62.7098C131.851 62.951 132.215 63.2945 132.48 63.7098C132.766 64.1859 132.905 64.7354 132.88 65.2899C132.882 65.9023 132.708 66.5025 132.38 67.0198C131.995 67.5919 131.448 68.0373 130.81 68.2999C129.965 68.6642 129.051 68.8416 128.13 68.8199Z" fill="black"/>
<path d="M138.62 68.6797V57.9097H134.41V56.3896H144.57V57.9097H140.36V68.6797H138.62Z" fill="black"/>
<mask id="path-9-inside-1_132_97" fill="white">
<path d="M28.9996 89.3105V84.3105H27.0596V83.9805H31.3196V84.3304H29.3896V89.3304L28.9996 89.3105Z"/>
</mask>
<path d="M28.9996 89.3105V84.3105H27.0596V83.9805H31.3196V84.3304H29.3896V89.3304L28.9996 89.3105Z" fill="black"/>
<path d="M28.9996 89.3105H13.9996V103.563L28.233 104.291L28.9996 89.3105ZM28.9996 84.3105H43.9996V69.3105H28.9996V84.3105ZM27.0596 84.3105H12.0596V99.3105H27.0596V84.3105ZM27.0596 83.9805V68.9805H12.0596V83.9805H27.0596ZM31.3196 83.9805H46.3196V68.9805H31.3196V83.9805ZM31.3196 84.3304V99.3304H46.3196V84.3304H31.3196ZM29.3896 84.3304V69.3304H14.3896V84.3304H29.3896ZM29.3896 89.3304L28.623 104.311L44.3896 105.118V89.3304H29.3896ZM43.9996 89.3105V84.3105H13.9996V89.3105H43.9996ZM28.9996 69.3105H27.0596V99.3105H28.9996V69.3105ZM42.0596 84.3105V83.9805H12.0596V84.3105H42.0596ZM27.0596 98.9805H31.3196V68.9805H27.0596V98.9805ZM16.3196 83.9805V84.3304H46.3196V83.9805H16.3196ZM31.3196 69.3304H29.3896V99.3304H31.3196V69.3304ZM14.3896 84.3304V89.3304H44.3896V84.3304H14.3896ZM30.1562 74.35L29.7662 74.3301L28.233 104.291L28.623 104.311L30.1562 74.35Z" fill="black" mask="url(#path-9-inside-1_132_97)"/>
<mask id="path-11-inside-2_132_97" fill="white">
<path d="M36.4304 85.2698C36.728 85.2653 37.0225 85.3304 37.2904 85.4598C37.5315 85.5908 37.7295 85.7888 37.8604 86.0298C38.0025 86.3223 38.0711 86.6449 38.0604 86.9698V89.3099H37.6804V86.9799C37.6949 86.6159 37.5737 86.2596 37.3404 85.9799C37.2076 85.8546 37.05 85.7587 36.8777 85.6984C36.7054 85.6381 36.5223 85.6147 36.3404 85.6299C36.0585 85.6216 35.7793 85.6871 35.5304 85.8199C35.3022 85.9408 35.1171 86.1294 35.0004 86.3599C34.8743 86.618 34.8126 86.9027 34.8204 87.1899V89.3199H34.4404V83.6299H34.8204V86.4299L34.7504 86.2999C34.8692 85.9942 35.083 85.7348 35.3604 85.5599C35.6771 85.3518 36.052 85.2501 36.4304 85.2698V85.2698Z"/>
</mask>
<path d="M36.4304 85.2698C36.728 85.2653 37.0225 85.3304 37.2904 85.4598C37.5315 85.5908 37.7295 85.7888 37.8604 86.0298C38.0025 86.3223 38.0711 86.6449 38.0604 86.9698V89.3099H37.6804V86.9799C37.6949 86.6159 37.5737 86.2596 37.3404 85.9799C37.2076 85.8546 37.05 85.7587 36.8777 85.6984C36.7054 85.6381 36.5223 85.6147 36.3404 85.6299C36.0585 85.6216 35.7793 85.6871 35.5304 85.8199C35.3022 85.9408 35.1171 86.1294 35.0004 86.3599C34.8743 86.618 34.8126 86.9027 34.8204 87.1899V89.3199H34.4404V83.6299H34.8204V86.4299L34.7504 86.2999C34.8692 85.9942 35.083 85.7348 35.3604 85.5599C35.6771 85.3518 36.052 85.2501 36.4304 85.2698V85.2698Z" fill="black"/>
<path d="M37.2904 85.4598L44.4502 72.2789L44.137 72.1088L43.8161 71.9537L37.2904 85.4598ZM37.8604 86.0298L51.3522 79.4747L51.2037 79.1688L51.0414 78.87L37.8604 86.0298ZM38.0604 86.9698L23.0686 86.475L23.0604 86.7224V86.9698H38.0604ZM38.0604 89.3099V104.31H53.0604V89.3099H38.0604ZM37.6804 89.3099H22.6804V104.31H37.6804V89.3099ZM37.6804 86.9799L22.6923 86.384L22.6804 86.6818V86.9799H37.6804ZM37.3404 85.9799L48.8592 76.3716L48.2858 75.6843L47.6348 75.07L37.3404 85.9799ZM36.3404 85.6299L35.9011 100.623L36.744 100.648L37.5844 100.578L36.3404 85.6299ZM35.5304 85.8199L42.5536 99.0741L42.5723 99.0642L42.5911 99.0542L35.5304 85.8199ZM35.0004 86.3599L21.6172 79.5856L21.5694 79.6802L21.5229 79.7754L35.0004 86.3599ZM34.8204 87.1899H49.8204V86.9849L49.8148 86.78L34.8204 87.1899ZM34.8204 89.3199V104.32H49.8204V89.3199H34.8204ZM34.4404 89.3199H19.4404V104.32H34.4404V89.3199ZM34.4404 83.6299V68.6299H19.4404V83.6299H34.4404ZM34.8204 83.6299H49.8204V68.6299H34.8204V83.6299ZM34.8204 86.4299L21.6136 93.5417L49.8204 86.4299H34.8204ZM34.7504 86.2999L20.7689 80.8669L18.2621 87.318L21.5436 93.4117L34.7504 86.2999ZM35.3604 85.5599L43.3615 98.2477L43.4803 98.1729L43.5976 98.0958L35.3604 85.5599ZM36.6586 100.268C34.6192 100.299 32.6009 99.8531 30.7647 98.966L43.8161 71.9537C41.444 70.8076 38.8368 70.2315 36.2022 70.2716L36.6586 100.268ZM30.1306 98.6408C27.8251 97.3885 25.9318 95.4951 24.6795 93.1897L51.0414 78.87C49.5271 76.0824 47.2378 73.7931 44.4502 72.2789L30.1306 98.6408ZM24.3686 92.585C23.4452 90.6846 22.9989 88.5874 23.0686 86.475L53.0523 87.4647C53.1434 84.7024 52.5597 81.9599 51.3522 79.4747L24.3686 92.585ZM23.0604 86.9698V89.3099H53.0604V86.9698H23.0604ZM38.0604 74.3099H37.6804V104.31H38.0604V74.3099ZM52.6804 89.3099V86.9799H22.6804V89.3099H52.6804ZM52.6686 87.5757C52.8307 83.4973 51.4727 79.5048 48.8592 76.3716L25.8216 95.5881C23.6747 93.0143 22.5591 89.7345 22.6923 86.384L52.6686 87.5757ZM47.6348 75.07C45.9705 73.4996 43.9938 72.2968 41.8329 71.5405L31.9224 99.8562C30.1062 99.2206 28.4448 98.2096 27.046 96.8897L47.6348 75.07ZM41.8329 71.5405C39.6712 70.7839 37.3758 70.4919 35.0963 70.6816L37.5844 100.578C35.6688 100.738 33.7395 100.492 31.9224 99.8562L41.8329 71.5405ZM36.7797 70.6363C33.8871 70.5516 31.0227 71.2235 28.4697 72.5856L42.5911 99.0542C40.5358 100.151 38.2298 100.692 35.9011 100.623L36.7797 70.6363ZM28.5072 72.5656C25.5402 74.1378 23.1334 76.5903 21.6172 79.5856L48.3836 93.1341C47.1007 95.6686 45.0642 97.7438 42.5536 99.0741L28.5072 72.5656ZM21.5229 79.7754C20.3341 82.2087 19.7521 84.8933 19.826 87.5998L49.8148 86.78C49.8731 88.9122 49.4146 91.0272 48.478 92.9444L21.5229 79.7754ZM19.8204 87.1899V89.3199H49.8204V87.1899H19.8204ZM34.8204 74.3199H34.4404V104.32H34.8204V74.3199ZM49.4404 89.3199V83.6299H19.4404V89.3199H49.4404ZM34.4404 98.6299H34.8204V68.6299H34.4404V98.6299ZM19.8204 83.6299V86.4299H49.8204V83.6299H19.8204ZM48.0273 79.318L47.9573 79.188L21.5436 93.4117L21.6136 93.5417L48.0273 79.318ZM48.7319 91.7328C47.6863 94.4237 45.8037 96.7077 43.3615 98.2477L27.3593 72.872C24.3623 74.7619 22.0521 77.5647 20.7689 80.8669L48.7319 91.7328ZM43.5976 98.0958C41.2463 99.6408 38.4624 100.396 35.6507 100.25L37.2101 70.2901C33.6415 70.1044 30.1079 71.0628 27.1232 73.024L43.5976 98.0958Z" fill="black" mask="url(#path-11-inside-2_132_97)"/>
<mask id="path-13-inside-3_132_97" fill="white">
<path d="M43.6204 89.3398C43.2464 89.3549 42.8757 89.2649 42.5504 89.0798C42.2427 88.9152 41.9893 88.6652 41.8204 88.3598C41.6442 88.056 41.551 87.7111 41.5504 87.3598C41.5418 86.9909 41.6279 86.626 41.8004 86.2998C41.9628 86.0057 42.2011 85.7606 42.4904 85.5898C42.7908 85.4054 43.138 85.3116 43.4904 85.3198C43.8413 85.313 44.1873 85.4029 44.4904 85.5798C44.7813 85.7452 45.0176 85.992 45.1704 86.2898C45.3359 86.597 45.4218 86.9408 45.4204 87.2898V87.3498H41.8804V87.0498H45.2204L45.0604 87.1998C45.0725 86.9079 45.007 86.6181 44.8704 86.3598C44.7416 86.1186 44.552 85.9152 44.3204 85.7698C44.0783 85.6272 43.8014 85.5545 43.5204 85.5598C43.2426 85.5543 42.9688 85.627 42.7304 85.7698C42.4939 85.9091 42.3028 86.1141 42.1804 86.3598C42.0395 86.6204 41.9705 86.9137 41.9804 87.2098V87.2798C41.975 87.5842 42.0509 87.8845 42.2004 88.1498C42.3391 88.4004 42.5475 88.6053 42.8004 88.7398C43.0678 88.8828 43.3672 88.955 43.6704 88.9498C43.9172 88.9506 44.1619 88.9031 44.3904 88.8098C44.612 88.7187 44.8078 88.5744 44.9604 88.3898L45.1804 88.6398C45.0085 88.8595 44.7805 89.0289 44.5204 89.1298C44.2389 89.2633 43.932 89.3349 43.6204 89.3398V89.3398Z"/>
</mask>
<path d="M43.6204 89.3398C43.2464 89.3549 42.8757 89.2649 42.5504 89.0798C42.2427 88.9152 41.9893 88.6652 41.8204 88.3598C41.6442 88.056 41.551 87.7111 41.5504 87.3598C41.5418 86.9909 41.6279 86.626 41.8004 86.2998C41.9628 86.0057 42.2011 85.7606 42.4904 85.5898C42.7908 85.4054 43.138 85.3116 43.4904 85.3198C43.8413 85.313 44.1873 85.4029 44.4904 85.5798C44.7813 85.7452 45.0176 85.992 45.1704 86.2898C45.3359 86.597 45.4218 86.9408 45.4204 87.2898V87.3498H41.8804V87.0498H45.2204L45.0604 87.1998C45.0725 86.9079 45.007 86.6181 44.8704 86.3598C44.7416 86.1186 44.552 85.9152 44.3204 85.7698C44.0783 85.6272 43.8014 85.5545 43.5204 85.5598C43.2426 85.5543 42.9688 85.627 42.7304 85.7698C42.4939 85.9091 42.3028 86.1141 42.1804 86.3598C42.0395 86.6204 41.9705 86.9137 41.9804 87.2098V87.2798C41.975 87.5842 42.0509 87.8845 42.2004 88.1498C42.3391 88.4004 42.5475 88.6053 42.8004 88.7398C43.0678 88.8828 43.3672 88.955 43.6704 88.9498C43.9172 88.9506 44.1619 88.9031 44.3904 88.8098C44.612 88.7187 44.8078 88.5744 44.9604 88.3898L45.1804 88.6398C45.0085 88.8595 44.7805 89.0289 44.5204 89.1298C44.2389 89.2633 43.932 89.3349 43.6204 89.3398V89.3398Z" fill="black"/>
<path d="M42.5504 89.0798L49.9678 76.0421L49.7988 75.9459L49.6274 75.8542L42.5504 89.0798ZM41.8204 88.3598L54.9471 81.1011L54.8726 80.9664L54.7954 80.8332L41.8204 88.3598ZM41.5504 87.3598L56.5504 87.3332L56.5501 87.1722L56.5463 87.0113L41.5504 87.3598ZM41.8004 86.2998L28.6703 79.0472L28.6043 79.1666L28.5405 79.2872L41.8004 86.2998ZM42.4904 85.5898L50.1152 98.5073L50.2276 98.441L50.3389 98.3726L42.4904 85.5898ZM43.4904 85.3198L43.1422 100.316L43.4627 100.323L43.7833 100.317L43.4904 85.3198ZM44.4904 85.5798L36.9299 98.535L37.0019 98.577L37.0743 98.6183L44.4904 85.5798ZM45.1704 86.2898L31.8241 93.1364L31.8931 93.2709L31.9648 93.404L45.1704 86.2898ZM45.4204 87.2898L30.4205 87.227L30.4204 87.2584V87.2898H45.4204ZM45.4204 87.3498V102.35H60.4204V87.3498H45.4204ZM41.8804 87.3498H26.8804V102.35H41.8804V87.3498ZM41.8804 87.0498V72.0498H26.8804V87.0498H41.8804ZM45.2204 87.0498L55.4791 97.9933L83.1542 72.0498H45.2204V87.0498ZM45.0604 87.1998L30.0734 86.5762L28.5478 123.239L55.3191 98.1432L45.0604 87.1998ZM44.8704 86.3598L58.1302 79.347L58.1159 79.3202L58.1016 79.2934L44.8704 86.3598ZM44.3204 85.7698L52.2969 73.0664L52.1163 72.953L51.9326 72.8448L44.3204 85.7698ZM43.5204 85.5598L43.2207 100.557L43.5118 100.563L43.803 100.557L43.5204 85.5598ZM42.7304 85.7698L50.3456 98.6929L50.3916 98.6658L50.4374 98.6384L42.7304 85.7698ZM42.1804 86.3598L55.3756 93.4933L55.4942 93.2738L55.6055 93.0506L42.1804 86.3598ZM41.9804 87.2098H56.9804V86.9591L56.972 86.7085L41.9804 87.2098ZM41.9804 87.2798L56.978 87.5471L56.9804 87.4134V87.2798H41.9804ZM42.2004 88.1498L55.3241 80.8856L55.2963 80.8354L55.2682 80.7855L42.2004 88.1498ZM42.8004 88.7398L49.8727 75.5117L49.8579 75.5038L49.843 75.4959L42.8004 88.7398ZM43.6704 88.9498L43.7189 73.9499L43.565 73.9494L43.4112 73.952L43.6704 88.9498ZM44.3904 88.8098L50.0562 102.699L50.0755 102.691L50.0948 102.683L44.3904 88.8098ZM44.9604 88.3898L56.2218 78.4811L44.6052 65.2787L33.3999 78.8318L44.9604 88.3898ZM45.1804 88.6398L56.9954 97.8813L64.6646 88.0765L56.4417 78.7311L45.1804 88.6398ZM44.5204 89.1298L39.0925 75.1463L38.585 75.3433L38.0931 75.5766L44.5204 89.1298ZM43.0128 74.3521C45.4439 74.2536 47.8535 74.8392 49.9678 76.0421L35.1329 102.117C37.8979 103.691 41.049 104.456 44.2279 104.327L43.0128 74.3521ZM49.6274 75.8542C51.8691 77.0537 53.7166 78.8757 54.9471 81.1011L28.6937 95.6185C30.2619 98.4546 32.6164 100.777 35.4734 102.305L49.6274 75.8542ZM54.7954 80.8332C55.9408 82.8077 56.5463 85.0494 56.5504 87.3332L26.5504 87.3864C26.5557 90.3727 27.3476 93.3043 28.8454 95.8864L54.7954 80.8332ZM56.5463 87.0113C56.5973 89.2041 56.0857 91.3735 55.0602 93.3124L28.5405 79.2872C27.1701 81.8785 26.4863 84.7777 26.5544 87.7083L56.5463 87.0113ZM54.9305 93.5525C53.7971 95.6043 52.1345 97.3154 50.1152 98.5073L34.8656 72.6722C32.2677 74.2057 30.1285 76.4072 28.6703 79.0472L54.9305 93.5525ZM50.3389 98.3726C48.1762 99.7005 45.6769 100.375 43.1422 100.316L43.8386 70.3239C40.5991 70.2486 37.4054 71.1102 34.6419 72.8069L50.3389 98.3726ZM43.7833 100.317C41.38 100.364 39.0085 99.7481 36.9299 98.535L52.0509 72.6245C49.366 71.0577 46.3026 70.262 43.1975 70.3227L43.7833 100.317ZM37.0743 98.6183C34.8276 97.3404 33.0033 95.435 31.8241 93.1364L58.5167 79.4432C57.032 76.549 54.735 74.1501 51.9065 72.5413L37.0743 98.6183ZM31.9648 93.404C30.9424 91.5062 30.4115 89.3826 30.4205 87.227L60.4203 87.3526C60.4322 84.499 59.7294 81.6879 58.376 79.1756L31.9648 93.404ZM30.4204 87.2898V87.3498H60.4204V87.2898H30.4204ZM45.4204 72.3498H41.8804V102.35H45.4204V72.3498ZM56.8804 87.3498V87.0498H26.8804V87.3498H56.8804ZM41.8804 102.05H45.2204V72.0498H41.8804V102.05ZM34.9617 76.1064L34.8017 76.2563L55.3191 98.1432L55.4791 97.9933L34.9617 76.1064ZM60.0474 87.8234C60.17 84.8777 59.5082 81.9526 58.1302 79.347L31.6106 93.3726C30.5058 91.2835 29.9751 88.9381 30.0734 86.5762L60.0474 87.8234ZM58.1016 79.2934C56.7425 76.7485 54.7419 74.6016 52.2969 73.0664L36.344 98.4732C34.3621 97.2287 32.7407 95.4887 31.6392 93.4263L58.1016 79.2934ZM51.9326 72.8448C49.2999 71.2943 46.2901 70.505 43.2379 70.5625L43.803 100.557C41.3127 100.604 38.8567 99.9601 36.7082 98.6948L51.9326 72.8448ZM43.8201 70.5628C40.7283 70.501 37.6795 71.3104 35.0233 72.9012L50.4374 98.6384C48.2581 99.9436 45.7569 100.608 43.2207 100.557L43.8201 70.5628ZM35.1151 72.8466C32.3794 74.4587 30.1707 76.8289 28.7553 79.6691L55.6055 93.0506C54.4349 95.3993 52.6084 97.3596 50.3456 98.6929L35.1151 72.8466ZM28.9852 79.2263C27.5793 81.8269 26.8899 84.7552 26.9888 87.711L56.972 86.7085C57.051 89.0723 56.4998 91.4138 55.3756 93.4933L28.9852 79.2263ZM26.9804 87.2098V87.2798H56.9804V87.2098H26.9804ZM26.9828 87.0125C26.9297 89.9883 27.6725 92.9231 29.1326 95.5141L55.2682 80.7855C56.4294 82.846 57.0202 85.1801 56.978 87.5471L26.9828 87.0125ZM29.0767 95.414C30.6205 98.203 32.9408 100.486 35.7578 101.984L49.843 75.4959C52.1542 76.7249 54.0577 78.5977 55.3241 80.8856L29.0767 95.414ZM35.7281 101.968C38.2498 103.316 41.073 103.997 43.9295 103.948L43.4112 73.952C45.6615 73.9131 47.8857 74.4494 49.8727 75.5117L35.7281 101.968ZM43.6219 103.95C45.8256 103.957 48.0117 103.533 50.0562 102.699L38.7246 74.921C40.312 74.2735 42.0088 73.9443 43.7189 73.9499L43.6219 103.95ZM50.0948 102.683C52.5941 101.655 54.8007 100.028 56.521 97.9477L33.3999 78.8318C34.8148 77.1205 36.6299 75.7823 38.686 74.9368L50.0948 102.683ZM33.6991 98.2985L33.919 98.5485L56.4417 78.7311L56.2218 78.4811L33.6991 98.2985ZM33.3654 79.3982C34.8557 77.493 36.8336 76.0232 39.0925 75.1463L49.9483 103.113C52.7274 102.035 55.1613 100.226 56.9954 97.8813L33.3654 79.3982ZM38.0931 75.5766C39.7501 74.7908 41.555 74.3703 43.3857 74.3416L43.8551 104.338C46.3089 104.3 48.7277 103.736 50.9477 102.683L38.0931 75.5766Z" fill="black" mask="url(#path-13-inside-3_132_97)"/>
<mask id="path-15-inside-4_132_97" fill="white">
<path d="M53.2402 89.3105V83.9804H55.1702C55.5672 83.9703 55.9621 84.0418 56.3303 84.1905C56.6333 84.323 56.8931 84.5378 57.0803 84.8105C57.2558 85.1145 57.3482 85.4594 57.3482 85.8105C57.3482 86.1615 57.2558 86.5064 57.0803 86.8105C56.896 87.0858 56.6353 87.3013 56.3303 87.4305C55.9629 87.5828 55.5679 87.6577 55.1702 87.6504H53.4603L53.6302 87.4604V89.4004L53.2402 89.3105ZM53.6302 87.3904L53.4603 87.2004H55.1702C55.6413 87.2336 56.1089 87.099 56.4902 86.8205C56.6418 86.6882 56.7612 86.523 56.8392 86.3376C56.9172 86.1521 56.9517 85.9513 56.9402 85.7505C56.9511 85.5482 56.9162 85.3461 56.8383 85.1592C56.7604 84.9722 56.6415 84.8052 56.4902 84.6704C56.1089 84.3919 55.6413 84.2573 55.1702 84.2904H53.4603L53.6302 84.1004V87.3904Z"/>
</mask>
<path d="M53.2402 89.3105V83.9804H55.1702C55.5672 83.9703 55.9621 84.0418 56.3303 84.1905C56.6333 84.323 56.8931 84.5378 57.0803 84.8105C57.2558 85.1145 57.3482 85.4594 57.3482 85.8105C57.3482 86.1615 57.2558 86.5064 57.0803 86.8105C56.896 87.0858 56.6353 87.3013 56.3303 87.4305C55.9629 87.5828 55.5679 87.6577 55.1702 87.6504H53.4603L53.6302 87.4604V89.4004L53.2402 89.3105ZM53.6302 87.3904L53.4603 87.2004H55.1702C55.6413 87.2336 56.1089 87.099 56.4902 86.8205C56.6418 86.6882 56.7612 86.523 56.8392 86.3376C56.9172 86.1521 56.9517 85.9513 56.9402 85.7505C56.9511 85.5482 56.9162 85.3461 56.8383 85.1592C56.7604 84.9722 56.6415 84.8052 56.4902 84.6704C56.1089 84.3919 55.6413 84.2573 55.1702 84.2904H53.4603L53.6302 84.1004V87.3904Z" fill="black"/>
<path d="M53.2402 89.3105H38.2402V101.244L49.8687 103.927L53.2402 89.3105ZM53.2402 83.9804V68.9804H38.2402V83.9804H53.2402ZM55.1702 83.9804V98.9804H55.3621L55.5539 98.9755L55.1702 83.9804ZM56.3303 84.1905L62.3413 70.4476L62.1451 70.3618L61.9466 70.2816L56.3303 84.1905ZM57.0803 84.8105L70.0706 77.3105L69.7782 76.804L69.4473 76.3218L57.0803 84.8105ZM57.0803 86.8105L69.5465 95.1527L69.8225 94.7402L70.0706 94.3105L57.0803 86.8105ZM56.3303 87.4305L62.0767 101.286L62.1279 101.265L62.1789 101.243L56.3303 87.4305ZM55.1702 87.6504L55.4445 72.6529L55.3074 72.6504H55.1702V87.6504ZM53.4603 87.6504L42.2811 77.6491L19.914 102.65H53.4603V87.6504ZM53.6302 87.4604H68.6302V48.1967L42.4511 77.4591L53.6302 87.4604ZM53.6302 89.4004L50.2587 104.017L68.6302 108.254V89.4004H53.6302ZM53.6302 87.3904L42.4511 97.3917L68.6302 126.654V87.3904H53.6302ZM53.4603 87.2004V72.2004H19.914L42.2811 97.2017L53.4603 87.2004ZM55.1702 87.2004L56.2229 72.2374L55.6972 72.2004H55.1702V87.2004ZM56.4902 86.8205L65.3375 98.9335L65.8624 98.5501L66.3521 98.1228L56.4902 86.8205ZM56.9402 85.7505L41.9616 84.9499L41.9173 85.7786L41.9647 86.6072L56.9402 85.7505ZM56.4902 84.6704L66.4689 73.471L65.9254 72.9868L65.3375 72.5574L56.4902 84.6704ZM55.1702 84.2904V99.2904H55.6972L56.2229 99.2535L55.1702 84.2904ZM53.4603 84.2904L42.2811 74.2891L19.914 99.2904H53.4603V84.2904ZM53.6302 84.1004H68.6302V44.8367L42.4511 74.0991L53.6302 84.1004ZM68.2402 89.3105V83.9804H38.2402V89.3105H68.2402ZM53.2402 98.9804H55.1702V68.9804H53.2402V98.9804ZM55.5539 98.9755C53.8972 99.0179 52.2499 98.7196 50.714 98.0993L61.9466 70.2816C59.6742 69.364 57.2372 68.9226 54.7865 68.9853L55.5539 98.9755ZM50.3192 97.9334C48.0544 96.9427 46.1123 95.3374 44.7133 93.2991L69.4473 76.3218C67.6739 73.7382 65.2122 71.7033 62.3413 70.4476L50.3192 97.9334ZM44.0899 92.3105C42.9488 90.3341 42.3482 88.0923 42.3482 85.8105H72.3482C72.3482 82.8265 71.5628 79.8949 70.0706 77.3105L44.0899 92.3105ZM42.3482 85.8105C42.3482 83.5286 42.9488 81.2868 44.0899 79.3105L70.0706 94.3105C71.5628 91.726 72.3482 88.7944 72.3482 85.8105H42.3482ZM44.614 78.4682C46.0556 76.3141 48.095 74.6282 50.4817 73.6176L62.1789 101.243C65.1756 99.9744 67.7365 97.8575 69.5465 95.1527L44.614 78.4682ZM50.5838 73.5748C52.1242 72.936 53.779 72.6225 55.4445 72.6529L54.8959 102.648C57.3568 102.693 59.8015 102.23 62.0767 101.286L50.5838 73.5748ZM55.1702 72.6504H53.4603V102.65H55.1702V72.6504ZM64.6394 97.6517L64.8094 97.4617L42.4511 77.4591L42.2811 77.6491L64.6394 97.6517ZM38.6302 87.4604V89.4004H68.6302V87.4604H38.6302ZM57.0018 74.7842L56.6118 74.6943L49.8687 103.927L50.2587 104.017L57.0018 74.7842ZM64.8094 77.3891L64.6394 77.1991L42.2811 97.2017L42.4511 97.3917L64.8094 77.3891ZM53.4603 102.2H55.1702V72.2004H53.4603V102.2ZM54.1175 102.163C58.1203 102.445 62.0951 101.302 65.3375 98.9335L47.6429 74.7075C50.1227 72.8963 53.1623 72.0221 56.2229 72.2374L54.1175 102.163ZM66.3521 98.1228C68.2266 96.4872 69.702 94.445 70.6661 92.1526L43.0122 80.5225C43.8203 78.601 45.057 76.8892 46.6284 75.5181L66.3521 98.1228ZM70.6661 92.1526C71.6303 89.8601 72.0578 87.3773 71.9158 84.8937L41.9647 86.6072C41.8456 84.5254 42.204 82.4441 43.0122 80.5225L70.6661 92.1526ZM71.9189 86.551C72.0498 84.1015 71.6279 81.654 70.6845 79.3899L42.9922 90.9284C42.2046 89.0382 41.8523 86.9949 41.9616 84.9499L71.9189 86.551ZM70.6845 79.3899C69.7409 77.1252 68.2999 75.1025 66.4689 73.471L46.5116 95.8699C44.983 94.5079 43.78 92.8191 42.9922 90.9284L70.6845 79.3899ZM65.3375 72.5574C62.0962 70.19 58.1216 69.0457 54.1175 69.3274L56.2229 99.2535C53.1609 99.4689 50.1216 98.5939 47.6429 96.7835L65.3375 72.5574ZM55.1702 69.2904H53.4603V99.2904H55.1702V69.2904ZM64.6394 94.2917L64.8094 94.1017L42.4511 74.0991L42.2811 74.2891L64.6394 94.2917ZM38.6302 84.1004V87.3904H68.6302V84.1004H38.6302Z" fill="black" mask="url(#path-15-inside-4_132_97)"/>
<mask id="path-17-inside-5_132_97" fill="white">
<path d="M60.7197 89.3102V85.3102H61.0897V86.4102V86.2902C61.1868 85.987 61.3844 85.726 61.6498 85.5502C61.949 85.3631 62.2971 85.2691 62.6498 85.2802V85.6602H62.5598C62.3729 85.656 62.1873 85.6913 62.015 85.7636C61.8427 85.836 61.6876 85.9438 61.5598 86.0802C61.2915 86.4091 61.1559 86.8265 61.1797 87.2502V89.3302L60.7197 89.3102Z"/>
</mask>
<path d="M60.7197 89.3102V85.3102H61.0897V86.4102V86.2902C61.1868 85.987 61.3844 85.726 61.6498 85.5502C61.949 85.3631 62.2971 85.2691 62.6498 85.2802V85.6602H62.5598C62.3729 85.656 62.1873 85.6913 62.015 85.7636C61.8427 85.836 61.6876 85.9438 61.5598 86.0802C61.2915 86.4091 61.1559 86.8265 61.1797 87.2502V89.3302L60.7197 89.3102Z" fill="black"/>
<path d="M60.7197 89.3102H45.7197V103.674L60.0695 104.296L60.7197 89.3102ZM60.7197 85.3102V70.3102H45.7197V85.3102H60.7197ZM61.0897 85.3102H76.0897V70.3102H61.0897V85.3102ZM61.0897 86.2902L46.8047 81.7144L46.0897 83.9465V86.2902H61.0897ZM61.6498 85.5502L53.6955 72.8329L53.5287 72.9372L53.3647 73.0459L61.6498 85.5502ZM62.6498 85.2802H77.6498V70.7456L63.1224 70.2876L62.6498 85.2802ZM62.6498 85.6602V100.66H77.6498V85.6602H62.6498ZM62.5598 85.6602L62.2243 100.656L62.392 100.66H62.5598V85.6602ZM61.5598 86.0802L50.617 75.8208L50.2632 76.198L49.9364 76.5988L61.5598 86.0802ZM61.1797 87.2502H76.1797V86.8288L76.1561 86.4081L61.1797 87.2502ZM61.1797 89.3302L60.5296 104.316L76.1797 104.995V89.3302H61.1797ZM75.7197 89.3102V85.3102H45.7197V89.3102H75.7197ZM60.7197 100.31H61.0897V70.3102H60.7197V100.31ZM46.0897 85.3102V86.4102H76.0897V85.3102H46.0897ZM76.0897 86.4102V86.2902H46.0897V86.4102H76.0897ZM75.3748 90.8659C74.4309 93.8126 72.5112 96.3475 69.9348 98.0545L53.3647 73.0459C50.2576 75.1046 47.9428 78.1615 46.8047 81.7144L75.3748 90.8659ZM69.6041 98.2675C67.3824 99.6571 64.7974 100.355 62.1771 100.273L63.1224 70.2876C59.7967 70.1828 56.5155 71.0691 53.6955 72.8329L69.6041 98.2675ZM47.6498 85.2802V85.6602H77.6498V85.2802H47.6498ZM62.6498 70.6602H62.5598V100.66H62.6498V70.6602ZM62.8952 70.6639C60.5997 70.6126 58.3207 71.0459 56.2065 71.9339L67.8235 99.5934C66.0539 100.337 64.1462 100.699 62.2243 100.656L62.8952 70.6639ZM56.2065 71.9339C54.0932 72.8215 52.1881 74.145 50.617 75.8208L72.5025 96.3396C71.1871 97.7426 69.5922 98.8505 67.8235 99.5934L56.2065 71.9339ZM49.9364 76.5988C47.3008 79.8298 45.9693 83.9298 46.2034 88.0924L76.1561 86.4081C76.3425 89.7232 75.2822 92.9883 73.1832 95.5615L49.9364 76.5988ZM46.1797 87.2502V89.3302H76.1797V87.2502H46.1797ZM61.8299 74.3443L61.3699 74.3243L60.0695 104.296L60.5296 104.316L61.8299 74.3443Z" fill="black" mask="url(#path-17-inside-5_132_97)"/>
<mask id="path-19-inside-6_132_97" fill="white">
<path d="M67.6204 89.3398C67.2468 89.3513 66.877 89.2615 66.5504 89.0798C66.2427 88.9152 65.9893 88.6652 65.8204 88.3598C65.6442 88.056 65.551 87.7111 65.5504 87.3598C65.5418 86.9909 65.6279 86.626 65.8004 86.2998C65.9628 86.0057 66.2011 85.7606 66.4904 85.5898C66.7908 85.4054 67.138 85.3116 67.4904 85.3198C67.8414 85.3119 68.1877 85.4019 68.4904 85.5798C68.7819 85.7477 69.0208 85.9936 69.1804 86.2898C69.3383 86.5995 69.4205 86.9422 69.4204 87.2898V87.3998H65.8804V87.0998H69.2104L69.0604 87.2498C69.069 86.9571 69 86.6673 68.8604 86.4098C68.7316 86.1686 68.542 85.9652 68.3104 85.8198C68.068 85.6822 67.7941 85.6098 67.5154 85.6098C67.2367 85.6098 66.9627 85.6822 66.7204 85.8198C66.4839 85.9592 66.2928 86.1641 66.1704 86.4098C66.0295 86.6704 65.9605 86.9638 65.9704 87.2598V87.3298C65.9649 87.6342 66.0409 87.9345 66.1904 88.1998C66.3291 88.4504 66.5375 88.6553 66.7904 88.7898C67.0614 88.9328 67.364 89.005 67.6704 88.9998C67.9139 88.9998 68.1551 88.9523 68.3804 88.8598C68.6035 88.7714 68.7999 88.6267 68.9504 88.4398L69.1704 88.6898C68.9985 88.9096 68.7705 89.0789 68.5104 89.1798C68.2284 89.2956 67.925 89.3502 67.6204 89.3398V89.3398Z"/>
</mask>
<path d="M67.6204 89.3398C67.2468 89.3513 66.877 89.2615 66.5504 89.0798C66.2427 88.9152 65.9893 88.6652 65.8204 88.3598C65.6442 88.056 65.551 87.7111 65.5504 87.3598C65.5418 86.9909 65.6279 86.626 65.8004 86.2998C65.9628 86.0057 66.2011 85.7606 66.4904 85.5898C66.7908 85.4054 67.138 85.3116 67.4904 85.3198C67.8414 85.3119 68.1877 85.4019 68.4904 85.5798C68.7819 85.7477 69.0208 85.9936 69.1804 86.2898C69.3383 86.5995 69.4205 86.9422 69.4204 87.2898V87.3998H65.8804V87.0998H69.2104L69.0604 87.2498C69.069 86.9571 69 86.6673 68.8604 86.4098C68.7316 86.1686 68.542 85.9652 68.3104 85.8198C68.068 85.6822 67.7941 85.6098 67.5154 85.6098C67.2367 85.6098 66.9627 85.6822 66.7204 85.8198C66.4839 85.9592 66.2928 86.1641 66.1704 86.4098C66.0295 86.6704 65.9605 86.9638 65.9704 87.2598V87.3298C65.9649 87.6342 66.0409 87.9345 66.1904 88.1998C66.3291 88.4504 66.5375 88.6553 66.7904 88.7898C67.0614 88.9328 67.364 89.005 67.6704 88.9998C67.9139 88.9998 68.1551 88.9523 68.3804 88.8598C68.6035 88.7714 68.7999 88.6267 68.9504 88.4398L69.1704 88.6898C68.9985 88.9096 68.7705 89.0789 68.5104 89.1798C68.2284 89.2956 67.925 89.3502 67.6204 89.3398V89.3398Z" fill="black"/>
<path d="M66.5504 89.0798L73.8414 75.971L73.7349 75.9117L73.6274 75.8542L66.5504 89.0798ZM65.8204 88.3598L78.9471 81.1011L78.8726 80.9664L78.7954 80.8332L65.8204 88.3598ZM65.5504 87.3598L80.5504 87.3332L80.5501 87.1722L80.5463 87.0113L65.5504 87.3598ZM65.8004 86.2998L52.6703 79.0472L52.6043 79.1666L52.5405 79.2872L65.8004 86.2998ZM66.4904 85.5898L74.1152 98.5073L74.2276 98.441L74.3389 98.3726L66.4904 85.5898ZM67.4904 85.3198L67.1422 100.316L67.485 100.324L67.8279 100.316L67.4904 85.3198ZM68.4904 85.5798L60.8914 98.5125L60.9469 98.5451L61.0026 98.5772L68.4904 85.5798ZM69.1804 86.2898L82.544 79.4771L82.4669 79.3258L82.3864 79.1764L69.1804 86.2898ZM69.4204 87.2898L54.4204 87.2843V87.2898H69.4204ZM69.4204 87.3998V102.4H84.4204V87.3998H69.4204ZM65.8804 87.3998H50.8804V102.4H65.8804V87.3998ZM65.8804 87.0998V72.0998H50.8804V87.0998H65.8804ZM69.2104 87.0998L79.817 97.7064L105.424 72.0998H69.2104V87.0998ZM69.0604 87.2498L54.0669 86.8094L52.9578 124.566L79.667 97.8564L69.0604 87.2498ZM68.8604 86.4098L55.6292 93.4763L55.6515 93.5181L55.6741 93.5597L68.8604 86.4098ZM68.3104 85.8198L76.2868 73.1164L76.0058 72.94L75.7172 72.7761L68.3104 85.8198ZM67.5154 85.6098V70.6098V85.6098ZM66.7204 85.8198L59.3135 72.7761L59.2088 72.8356L59.1051 72.8967L66.7204 85.8198ZM66.1704 86.4098L79.3656 93.5433L79.4842 93.3238L79.5955 93.1006L66.1704 86.4098ZM65.9704 87.2598H80.9704V87.0091L80.962 86.7586L65.9704 87.2598ZM65.9704 87.3298L80.968 87.5971L80.9704 87.4634V87.3298H65.9704ZM66.1904 88.1998L79.3141 80.9356L79.2863 80.8854L79.2582 80.8355L66.1904 88.1998ZM66.7904 88.7898L59.7478 102.034L59.7696 102.045L59.7915 102.057L66.7904 88.7898ZM67.6704 88.9998L67.6709 73.9998L67.5437 73.9998L67.4165 74.002L67.6704 88.9998ZM68.3804 88.8598L62.8514 74.916L62.7684 74.9489L62.6858 74.9828L68.3804 88.8598ZM68.9504 88.4398L80.2118 78.5311L68.4458 65.159L57.2703 79.0284L68.9504 88.4398ZM69.1704 88.6898L80.9854 97.9314L88.6546 88.1266L80.4317 78.7811L69.1704 88.6898ZM68.5104 89.1798L63.0825 75.1963L62.9463 75.2492L62.811 75.3048L68.5104 89.1798ZM67.1578 74.3469C69.4917 74.2749 71.8012 74.8362 73.8414 75.971L59.2594 102.189C61.9529 103.687 65.0019 104.428 68.083 104.333L67.1578 74.3469ZM73.6274 75.8542C75.8691 77.0537 77.7166 78.8757 78.9471 81.1011L52.6937 95.6185C54.2619 98.4546 56.6164 100.777 59.4734 102.305L73.6274 75.8542ZM78.7954 80.8332C79.9408 82.8077 80.5463 85.0494 80.5504 87.3332L50.5504 87.3864C50.5557 90.3727 51.3476 93.3043 52.8454 95.8864L78.7954 80.8332ZM80.5463 87.0113C80.5973 89.2041 80.0857 91.3735 79.0602 93.3124L52.5405 79.2872C51.1701 81.8785 50.4863 84.7777 50.5544 87.7083L80.5463 87.0113ZM78.9305 93.5525C77.7971 95.6043 76.1345 97.3154 74.1152 98.5073L58.8656 72.6722C56.2677 74.2057 54.1285 76.4072 52.6703 79.0472L78.9305 93.5525ZM74.3389 98.3726C72.1762 99.7005 69.6769 100.375 67.1422 100.316L67.8386 70.3239C64.5991 70.2486 61.4054 71.1102 58.6419 72.8069L74.3389 98.3726ZM67.8279 100.316C65.3946 100.371 62.9924 99.747 60.8914 98.5125L76.0894 72.6471C73.3829 71.0568 70.2882 70.2531 67.1529 70.3236L67.8279 100.316ZM61.0026 98.5772C58.8779 97.3532 57.1368 95.5613 55.9744 93.4032L82.3864 79.1764C80.9049 76.4259 78.6859 74.1423 75.9782 72.5824L61.0026 98.5772ZM55.8168 93.1025C54.8981 91.3004 54.4196 89.3065 54.4204 87.2843L84.4204 87.2953C84.4214 84.5778 83.7785 81.8985 82.544 79.4771L55.8168 93.1025ZM54.4204 87.2898V87.3998H84.4204V87.2898H54.4204ZM69.4204 72.3998H65.8804V102.4H69.4204V72.3998ZM80.8804 87.3998V87.0998H50.8804V87.3998H80.8804ZM65.8804 102.1H69.2104V72.0998H65.8804V102.1ZM58.6038 76.4932L58.4538 76.6432L79.667 97.8564L79.817 97.7064L58.6038 76.4932ZM84.0539 87.6903C84.1402 84.7521 83.4476 81.8436 82.0467 79.2599L55.6741 93.5597C54.5523 91.4909 53.9978 89.1621 54.0669 86.8094L84.0539 87.6903ZM82.0916 79.3433C80.7317 76.7971 78.7306 74.6508 76.2868 73.1164L60.334 98.5232C58.3534 97.2796 56.7314 95.5401 55.6292 93.4763L82.0916 79.3433ZM75.7172 72.7761C73.2185 71.3572 70.3927 70.6098 67.5154 70.6098L67.5154 100.61C65.1955 100.61 62.9175 100.007 60.9036 98.8636L75.7172 72.7761ZM67.5154 70.6098C64.6387 70.6098 61.8127 71.3569 59.3135 72.7761L74.1272 98.8636C72.1127 100.007 69.8347 100.61 67.5154 100.61V70.6098ZM59.1051 72.8967C56.3707 74.508 54.1614 76.8775 52.7453 79.719L79.5955 93.1006C78.4242 95.4507 76.597 97.4104 74.3356 98.743L59.1051 72.8967ZM52.9752 79.2763C51.569 81.8774 50.8799 84.8057 50.9787 87.7611L80.962 86.7586C81.041 89.1218 80.49 91.4634 79.3656 93.5433L52.9752 79.2763ZM50.9704 87.2598V87.3298H80.9704V87.2598H50.9704ZM50.9728 87.0625C50.9197 90.0383 51.6625 92.9731 53.1226 95.5641L79.2582 80.8355C80.4194 82.896 81.0102 85.2301 80.968 87.5971L50.9728 87.0625ZM53.0667 95.464C54.6105 98.253 56.9308 100.536 59.7478 102.034L73.833 75.5459C76.1442 76.7749 78.0477 78.6477 79.3141 80.9356L53.0667 95.464ZM59.7915 102.057C62.2952 103.378 65.0925 104.046 67.9242 103.998L67.4165 74.002C69.6356 73.9644 71.8275 74.4878 73.7893 75.5227L59.7915 102.057ZM67.6698 104C69.8672 104 72.043 103.571 74.075 102.737L62.6858 74.9828C64.2673 74.3338 65.9606 73.9998 67.6709 73.9998L67.6698 104ZM73.9094 102.804C76.539 101.761 78.8547 100.055 80.6305 97.8513L57.2703 79.0284C58.745 77.1982 60.668 75.7818 62.8514 74.916L73.9094 102.804ZM57.6891 98.3485L57.909 98.5985L80.4317 78.7811L80.2118 78.5311L57.6891 98.3485ZM57.3554 79.4483C58.8468 77.5416 60.8253 76.0725 63.0825 75.1963L73.9383 103.163C76.7157 102.085 79.1502 100.278 80.9854 97.9314L57.3554 79.4483ZM62.811 75.3048C64.4972 74.6121 66.3105 74.2866 68.1303 74.3485L67.1105 104.331C69.5396 104.414 71.9597 103.979 74.2098 103.055L62.811 75.3048Z" fill="black" mask="url(#path-19-inside-6_132_97)"/>
<mask id="path-21-inside-7_132_97" fill="white">
<path d="M72.1699 85.6301V85.3001H74.6199V85.6301H72.1699ZM72.9099 89.3101V84.6901C72.8923 84.5401 72.9088 84.388 72.9584 84.2453C73.0079 84.1026 73.0892 83.973 73.196 83.8662C73.3028 83.7593 73.4324 83.6781 73.5751 83.6286C73.7178 83.579 73.8699 83.5624 74.02 83.5801C74.1691 83.583 74.3172 83.6066 74.46 83.6501C74.5916 83.6862 74.712 83.755 74.8099 83.8501L74.6599 84.1401C74.5835 84.0593 74.4868 84.0006 74.3799 83.9701C74.2713 83.9291 74.156 83.9087 74.0399 83.9101C73.9369 83.9016 73.8332 83.916 73.7364 83.9523C73.6396 83.9886 73.552 84.0459 73.4799 84.1201C73.3367 84.2859 73.2648 84.5015 73.2799 84.7201V89.3101H72.9099Z"/>
</mask>
<path d="M72.1699 85.6301V85.3001H74.6199V85.6301H72.1699ZM72.9099 89.3101V84.6901C72.8923 84.5401 72.9088 84.388 72.9584 84.2453C73.0079 84.1026 73.0892 83.973 73.196 83.8662C73.3028 83.7593 73.4324 83.6781 73.5751 83.6286C73.7178 83.579 73.8699 83.5624 74.02 83.5801C74.1691 83.583 74.3172 83.6066 74.46 83.6501C74.5916 83.6862 74.712 83.755 74.8099 83.8501L74.6599 84.1401C74.5835 84.0593 74.4868 84.0006 74.3799 83.9701C74.2713 83.9291 74.156 83.9087 74.0399 83.9101C73.9369 83.9016 73.8332 83.916 73.7364 83.9523C73.6396 83.9886 73.552 84.0459 73.4799 84.1201C73.3367 84.2859 73.2648 84.5015 73.2799 84.7201V89.3101H72.9099Z" fill="black"/>
<path d="M72.1699 85.6301H57.1699V100.63H72.1699V85.6301ZM72.1699 85.3001V70.3001H57.1699V85.3001H72.1699ZM74.6199 85.3001H89.6199V70.3001H74.6199V85.3001ZM74.6199 85.6301V100.63H89.6199V85.6301H74.6199ZM72.9099 89.3101H57.9099V104.31H72.9099V89.3101ZM72.9099 84.6901H87.9099V83.8107L87.8072 82.9374L72.9099 84.6901ZM74.02 83.5801L72.2672 98.4773L72.9925 98.5627L73.7227 98.5771L74.02 83.5801ZM74.46 83.6501L70.0886 97.999L70.2898 98.0603L70.4927 98.116L74.46 83.6501ZM74.8099 83.8501L88.1325 90.7428L93.2516 80.8482L85.2587 73.088L74.8099 83.8501ZM74.6599 84.1401L63.7647 94.45L78.279 109.788L87.9825 91.0327L74.6599 84.1401ZM74.3799 83.9701L69.0765 98.0013L69.6596 98.2217L70.2589 98.3929L74.3799 83.9701ZM74.0399 83.9101L72.802 98.8589L73.51 98.9176L74.2204 98.909L74.0399 83.9101ZM73.4799 84.1201L62.7179 73.6713L62.4147 73.9835L62.1302 74.3128L73.4799 84.1201ZM73.2799 84.7201H88.2799V84.2015L88.2441 83.6841L73.2799 84.7201ZM73.2799 89.3101V104.31H88.2799V89.3101H73.2799ZM87.1699 85.6301V85.3001H57.1699V85.6301H87.1699ZM72.1699 100.3H74.6199V70.3001H72.1699V100.3ZM59.6199 85.3001V85.6301H89.6199V85.3001H59.6199ZM74.6199 70.6301H72.1699V100.63H74.6199V70.6301ZM87.9099 89.3101V84.6901H57.9099V89.3101H87.9099ZM87.8072 82.9374C88.0543 85.038 87.8223 87.167 87.1288 89.1647L58.788 79.326C57.9954 81.609 57.7302 84.0423 58.0127 86.4429L87.8072 82.9374ZM87.1288 89.1647C86.4347 91.1638 85.297 92.9783 83.8026 94.4728L62.5894 73.2596C60.8813 74.9677 59.5811 77.0414 58.788 79.326L87.1288 89.1647ZM83.8026 94.4728C82.3081 95.9672 80.4937 97.1049 78.4945 97.7989L68.6558 69.4582C66.3712 70.2513 64.2975 71.5515 62.5894 73.2596L83.8026 94.4728ZM78.4945 97.7989C76.4968 98.4925 74.3678 98.7245 72.2672 98.4773L75.7727 68.6828C73.3721 68.4004 70.9389 68.6656 68.6558 69.4582L78.4945 97.7989ZM73.7227 98.5771C72.49 98.5527 71.2671 98.358 70.0886 97.999L78.8313 69.3012C77.3673 68.8552 75.8483 68.6134 74.3173 68.583L73.7227 98.5771ZM70.4927 98.116C68.1846 97.483 66.0759 96.277 64.3612 94.6123L85.2587 73.088C83.3481 71.233 80.9986 69.8895 78.4272 69.1842L70.4927 98.116ZM61.4873 76.9575L61.3373 77.2474L87.9825 91.0327L88.1325 90.7428L61.4873 76.9575ZM85.5551 73.8302C83.6303 71.7961 81.194 70.3168 78.501 69.5473L70.2589 98.3929C67.7797 97.6845 65.5367 96.3226 63.7647 94.45L85.5551 73.8302ZM79.6834 69.9389C77.8226 69.2356 75.8473 68.8873 73.8595 68.9112L74.2204 98.909C72.4647 98.9301 70.72 98.6225 69.0765 98.0013L79.6834 69.9389ZM75.2779 68.9613C72.9666 68.7699 70.6415 69.0929 68.4695 69.9073L79.0032 97.9972C77.025 98.7391 74.9071 99.0333 72.802 98.8589L75.2779 68.9613ZM68.4695 69.9073C66.297 70.7221 64.3329 72.0079 62.7179 73.6713L84.242 94.569C82.771 96.084 80.9821 97.2551 79.0032 97.9972L68.4695 69.9073ZM62.1302 74.3128C59.3989 77.4736 58.0271 81.5868 58.3157 85.7561L88.2441 83.6841C88.5025 87.4163 87.2744 91.0982 84.8296 93.9275L62.1302 74.3128ZM58.2799 84.7201V89.3101H88.2799V84.7201H58.2799ZM73.2799 74.3101H72.9099V104.31H73.2799V74.3101Z" fill="black" mask="url(#path-21-inside-7_132_97)"/>
<mask id="path-23-inside-8_132_97" fill="white">
<path d="M79.2199 89.3398C78.8432 89.3511 78.4703 89.2614 78.14 89.0798C77.8343 88.9125 77.5814 88.6631 77.4099 88.3598C77.2421 88.053 77.1529 87.7095 77.15 87.3598C77.1414 86.9909 77.2275 86.626 77.4 86.2998C77.5569 86.0017 77.7964 85.7551 78.0899 85.5898C78.3903 85.4054 78.7376 85.3116 79.0899 85.3198C79.4408 85.313 79.7868 85.4029 80.0899 85.5798C80.3809 85.7452 80.6172 85.992 80.77 86.2898C80.9355 86.597 81.0215 86.9408 81.02 87.2898V87.3498H77.48V87.0498H80.82L80.6599 87.1998C80.6721 86.9079 80.6065 86.6181 80.4699 86.3598C80.3411 86.1186 80.1515 85.9152 79.92 85.7698C79.6778 85.6272 79.4009 85.5545 79.12 85.5598C78.8391 85.5556 78.5625 85.6281 78.32 85.7698C78.0884 85.9152 77.8988 86.1186 77.77 86.3598C77.6338 86.6221 77.565 86.9142 77.57 87.2098V87.2798C77.5691 87.5837 77.6448 87.8829 77.79 88.1498C77.9353 88.3987 78.1464 88.6029 78.4 88.7398C78.6669 88.884 78.9667 88.9564 79.27 88.9498C79.5168 88.9506 79.7614 88.9031 79.99 88.8098C80.2115 88.7187 80.4073 88.5744 80.56 88.3898L80.7799 88.6398C80.6039 88.8552 80.3771 89.0237 80.12 89.1298C79.8384 89.2633 79.5315 89.3349 79.2199 89.3398V89.3398Z"/>
</mask>
<path d="M79.2199 89.3398C78.8432 89.3511 78.4703 89.2614 78.14 89.0798C77.8343 88.9125 77.5814 88.6631 77.4099 88.3598C77.2421 88.053 77.1529 87.7095 77.15 87.3598C77.1414 86.9909 77.2275 86.626 77.4 86.2998C77.5569 86.0017 77.7964 85.7551 78.0899 85.5898C78.3903 85.4054 78.7376 85.3116 79.0899 85.3198C79.4408 85.313 79.7868 85.4029 80.0899 85.5798C80.3809 85.7452 80.6172 85.992 80.77 86.2898C80.9355 86.597 81.0215 86.9408 81.02 87.2898V87.3498H77.48V87.0498H80.82L80.6599 87.1998C80.6721 86.9079 80.6065 86.6181 80.4699 86.3598C80.3411 86.1186 80.1515 85.9152 79.92 85.7698C79.6778 85.6272 79.4009 85.5545 79.12 85.5598C78.8391 85.5556 78.5625 85.6281 78.32 85.7698C78.0884 85.9152 77.8988 86.1186 77.77 86.3598C77.6338 86.6221 77.565 86.9142 77.57 87.2098V87.2798C77.5691 87.5837 77.6448 87.8829 77.79 88.1498C77.9353 88.3987 78.1464 88.6029 78.4 88.7398C78.6669 88.884 78.9667 88.9564 79.27 88.9498C79.5168 88.9506 79.7614 88.9031 79.99 88.8098C80.2115 88.7187 80.4073 88.5744 80.56 88.3898L80.7799 88.6398C80.6039 88.8552 80.3771 89.0237 80.12 89.1298C79.8384 89.2633 79.5315 89.3349 79.2199 89.3398V89.3398Z" fill="black"/>
<path d="M78.14 89.0798L85.3658 75.9349L85.3538 75.9283L85.3418 75.9218L78.14 89.0798ZM77.4099 88.3598L64.2501 95.5583L64.3006 95.6507L64.3525 95.7424L77.4099 88.3598ZM77.15 87.3598L92.1495 87.2368L92.1486 87.1241L92.1459 87.0113L77.15 87.3598ZM77.4 86.2998L90.6598 93.3124L90.6673 93.2982L90.6748 93.284L77.4 86.2998ZM78.0899 85.5898L85.4505 98.6597L85.6972 98.5208L85.9384 98.3726L78.0899 85.5898ZM79.0899 85.3198L78.7417 100.316L79.0623 100.323L79.3828 100.317L79.0899 85.3198ZM80.0899 85.5798L72.5294 98.535L72.6014 98.577L72.6739 98.6183L80.0899 85.5798ZM80.77 86.2898L67.4237 93.1364L67.4927 93.2709L67.5644 93.404L80.77 86.2898ZM81.02 87.2898L66.0201 87.227L66.02 87.2584V87.2898H81.02ZM81.02 87.3498V102.35H96.02V87.3498H81.02ZM77.48 87.3498H62.48V102.35H77.48V87.3498ZM77.48 87.0498V72.0498H62.48V87.0498H77.48ZM80.82 87.0498L91.0766 97.9952L118.764 72.0498H80.82V87.0498ZM80.6599 87.1998L65.6729 86.5762L64.1478 123.229L90.9166 98.1452L80.6599 87.1998ZM80.4699 86.3598L93.7297 79.347L93.7155 79.3202L93.7012 79.2934L80.4699 86.3598ZM79.92 85.7698L87.8964 73.0664L87.7158 72.953L87.5321 72.8448L79.92 85.7698ZM79.12 85.5598L78.8924 100.558L79.1475 100.562L79.4025 100.557L79.12 85.5598ZM78.32 85.7698L70.7553 72.817L70.5474 72.9384L70.3435 73.0664L78.32 85.7698ZM77.77 86.3598L64.5388 79.2934L64.4977 79.3703L64.4575 79.4477L77.77 86.3598ZM77.57 87.2098H92.57V87.0844L92.5679 86.959L77.57 87.2098ZM77.57 87.2798L92.5699 87.3222L92.57 87.301V87.2798H77.57ZM77.79 88.1498L64.6132 95.3173L64.7215 95.5163L64.8357 95.7119L77.79 88.1498ZM78.4 88.7398L85.5312 75.5434L85.5263 75.5407L78.4 88.7398ZM79.27 88.9498L79.3185 73.9499L79.1312 73.9492L78.944 73.9533L79.27 88.9498ZM79.99 88.8098L85.6557 102.699L85.675 102.691L85.6943 102.683L79.99 88.8098ZM80.56 88.3898L91.8213 78.4811L80.2048 65.2787L68.9994 78.8318L80.56 88.3898ZM80.7799 88.6398L92.3962 98.13L100.443 88.2801L92.0413 78.7311L80.7799 88.6398ZM80.12 89.1298L74.3966 75.2647L74.0406 75.4116L73.6926 75.5766L80.12 89.1298ZM78.7681 74.3466C81.0703 74.2772 83.3484 74.8259 85.3658 75.9349L70.9141 102.225C73.5922 103.697 76.6161 104.425 79.6718 104.333L78.7681 74.3466ZM85.3418 75.9218C87.4867 77.0957 89.2625 78.8461 90.4674 80.9772L64.3525 95.7424C65.9004 98.4802 68.182 100.729 70.9382 102.238L85.3418 75.9218ZM90.5698 81.1614C91.5901 83.0265 92.1321 85.1139 92.1495 87.2368L62.1505 87.4828C62.1736 90.3051 62.8942 93.0795 64.2501 95.5583L90.5698 81.1614ZM92.1459 87.0113C92.1969 89.2041 91.6853 91.3735 90.6598 93.3124L64.1402 79.2872C62.7697 81.8785 62.0859 84.7777 62.154 87.7083L92.1459 87.0113ZM90.6748 93.284C89.488 95.5398 87.6746 97.4071 85.4505 98.6597L70.7294 72.5199C67.9182 74.1031 65.6257 76.4635 64.1252 79.3156L90.6748 93.284ZM85.9384 98.3726C83.7757 99.7005 81.2765 100.375 78.7417 100.316L79.4382 70.3239C76.1986 70.2486 73.0049 71.1102 70.2414 72.8069L85.9384 98.3726ZM79.3828 100.317C76.9795 100.364 74.6081 99.7481 72.5294 98.535L87.6505 72.6245C84.9656 71.0577 81.9021 70.262 78.797 70.3227L79.3828 100.317ZM72.6739 98.6183C70.4284 97.3411 68.6035 95.4362 67.4237 93.1364L94.1163 79.4432C92.631 76.5478 90.3333 74.1494 87.506 72.5413L72.6739 98.6183ZM67.5644 93.404C66.542 91.5062 66.0111 89.3826 66.0201 87.227L96.0199 87.3526C96.0318 84.499 95.329 81.6879 93.9756 79.1756L67.5644 93.404ZM66.02 87.2898V87.3498H96.02V87.2898H66.02ZM81.02 72.3498H77.48V102.35H81.02V72.3498ZM92.48 87.3498V87.0498H62.48V87.3498H92.48ZM77.48 102.05H80.82V72.0498H77.48V102.05ZM70.5634 76.1044L70.4033 76.2544L90.9166 98.1452L91.0766 97.9952L70.5634 76.1044ZM95.647 87.8234C95.7695 84.8777 95.1077 81.9526 93.7297 79.347L67.2102 93.3726C66.1053 91.2835 65.5746 88.9381 65.6729 86.5762L95.647 87.8234ZM93.7012 79.2934C92.342 76.7485 90.3415 74.6016 87.8964 73.0664L71.9435 98.4732C69.9616 97.2287 68.3402 95.4887 67.2387 93.4263L93.7012 79.2934ZM87.5321 72.8448C84.8995 71.2943 81.8896 70.505 78.8374 70.5625L79.4025 100.557C76.9122 100.604 74.4562 99.9601 72.3078 98.6948L87.5321 72.8448ZM79.3475 70.5615C76.3326 70.5158 73.3612 71.295 70.7553 72.817L85.8847 98.7226C83.7638 99.9612 81.3457 100.595 78.8924 100.558L79.3475 70.5615ZM70.3435 73.0664C67.8985 74.6016 65.8979 76.7485 64.5388 79.2934L91.0012 93.4263C89.8997 95.4887 88.2783 97.2287 86.2964 98.4732L70.3435 73.0664ZM64.4575 79.4477C63.1737 81.9202 62.5255 84.6739 62.5721 87.4606L92.5679 86.959C92.6046 89.1546 92.0938 91.3241 91.0825 93.2719L64.4575 79.4477ZM62.57 87.2098V87.2798H92.57V87.2098H62.57ZM62.57 87.2374C62.5621 90.0586 63.2643 92.8374 64.6132 95.3173L90.9667 80.9822C92.0252 82.9283 92.5762 85.1087 92.5699 87.3222L62.57 87.2374ZM64.8357 95.7119C66.3696 98.3396 68.5972 100.494 71.2737 101.939L85.5263 75.5407C87.6955 76.7119 89.5009 78.4578 90.7442 80.5876L64.8357 95.7119ZM71.2688 101.936C73.8245 103.317 76.6942 104.009 79.596 103.946L78.944 73.9533C81.2392 73.9034 83.5093 74.4508 85.5312 75.5434L71.2688 101.936ZM79.2215 103.95C81.4257 103.957 83.6117 103.532 85.6557 102.699L74.3242 74.921C75.9111 74.2736 77.608 73.9443 79.3185 73.9499L79.2215 103.95ZM85.6943 102.683C88.1937 101.655 90.4003 100.028 92.1205 97.9477L68.9994 78.8318C70.4144 77.1205 72.2294 75.7823 74.2856 74.9368L85.6943 102.683ZM69.2986 98.2985L69.5186 98.5485L92.0413 78.7311L91.8213 78.4811L69.2986 98.2985ZM69.1637 79.1496C70.558 77.4429 72.3556 76.1072 74.3966 75.2647L85.8433 102.995C88.3987 101.94 90.6498 100.268 92.3962 98.13L69.1637 79.1496ZM73.6926 75.5766C75.3496 74.7908 77.1545 74.3703 78.9853 74.3416L79.4546 104.338C81.9085 104.3 84.3272 103.736 86.5473 102.683L73.6926 75.5766Z" fill="black" mask="url(#path-23-inside-8_132_97)"/>
<path d="M86.0703 85.6705L86.0713 85.616L86.0731 85.5163V85.5163L86.0767 85.3204C86.0823 85.3204 86.088 85.3203 86.0936 85.3203C86.1714 85.3201 86.249 85.3244 86.3259 85.3332L86.3034 85.6855C86.2333 85.676 86.1625 85.671 86.0914 85.6705C86.0861 85.6705 86.0807 85.6705 86.0753 85.6705C86.0741 85.6705 86.0728 85.6705 86.0715 85.6705C86.0711 85.6705 86.0707 85.6705 86.0703 85.6705ZM86.0703 85.6705L86.0681 85.3205C86.0596 85.3206 86.0511 85.3207 86.0425 85.3208L86.045 85.6702C86.0534 85.6702 86.0619 85.6703 86.0703 85.6705ZM86.0703 89.0505C86.0745 89.0505 86.0787 89.0505 86.0829 89.0505C86.0848 89.0505 86.0868 89.0505 86.0888 89.0505L86.0832 89.1391L86.0744 89.276L86.0703 89.0505ZM86.0703 89.0505C86.0696 89.0505 86.069 89.0505 86.0683 89.0505L86.0694 89.2028L86.0703 89.0505Z" fill="black" stroke="black" stroke-width="15"/>
<mask id="path-26-inside-9_132_97" fill="white">
<path d="M90.4297 85.6297V85.2997H92.8197V85.6297H90.4297ZM92.2597 89.3397C92.1116 89.3547 91.962 89.3364 91.8219 89.2863C91.6818 89.2361 91.5546 89.1553 91.4497 89.0497C91.3515 88.9421 91.276 88.8158 91.2279 88.6783C91.1798 88.5408 91.16 88.395 91.1697 88.2497V84.4297H91.5497V88.2197C91.5355 88.4334 91.6035 88.6444 91.7397 88.8097C91.813 88.8815 91.9011 88.9366 91.9977 88.9711C92.0944 89.0057 92.1974 89.0188 92.2997 89.0097C92.5269 89.0182 92.7487 88.9395 92.9197 88.7897L93.0797 89.0597C92.9709 89.1603 92.8411 89.2354 92.6997 89.2797C92.5565 89.3199 92.4084 89.3401 92.2597 89.3397Z"/>
</mask>
<path d="M90.4297 85.6297V85.2997H92.8197V85.6297H90.4297ZM92.2597 89.3397C92.1116 89.3547 91.962 89.3364 91.8219 89.2863C91.6818 89.2361 91.5546 89.1553 91.4497 89.0497C91.3515 88.9421 91.276 88.8158 91.2279 88.6783C91.1798 88.5408 91.16 88.395 91.1697 88.2497V84.4297H91.5497V88.2197C91.5355 88.4334 91.6035 88.6444 91.7397 88.8097C91.813 88.8815 91.9011 88.9366 91.9977 88.9711C92.0944 89.0057 92.1974 89.0188 92.2997 89.0097C92.5269 89.0182 92.7487 88.9395 92.9197 88.7897L93.0797 89.0597C92.9709 89.1603 92.8411 89.2354 92.6997 89.2797C92.5565 89.3199 92.4084 89.3401 92.2597 89.3397Z" fill="black"/>
<path d="M90.4297 85.6297H75.4297V100.63H90.4297V85.6297ZM90.4297 85.2997V70.2997H75.4297V85.2997H90.4297ZM92.8197 85.2997H107.82V70.2997H92.8197V85.2997ZM92.8197 85.6297V100.63H107.82V85.6297H92.8197ZM92.2597 89.3397L92.3021 74.3397L91.5236 74.3375L90.7491 74.4159L92.2597 89.3397ZM91.4497 89.0497L80.3718 99.1631L80.5862 99.3979L80.8103 99.6234L91.4497 89.0497ZM91.1697 88.2497L106.136 89.2474L106.17 88.7491V88.2497H91.1697ZM91.1697 84.4297V69.4297H76.1697V84.4297H91.1697ZM91.5497 84.4297H106.55V69.4297H91.5497V84.4297ZM91.5497 88.2197L106.517 89.2139L106.55 88.7174V88.2197H91.5497ZM91.7397 88.8097L80.1655 98.3511L80.673 98.9667L81.2428 99.5249L91.7397 88.8097ZM92.2997 89.0097L92.8634 74.0203L91.913 73.9846L90.9656 74.0692L92.2997 89.0097ZM92.9197 88.7897L105.824 81.1418L96.6161 65.6065L83.034 77.5081L92.9197 88.7897ZM93.0797 89.0597L103.262 100.074L112.166 91.8432L105.984 81.4119L93.0797 89.0597ZM92.6997 89.2797L96.7567 103.721L96.9702 103.661L97.1819 103.594L92.6997 89.2797ZM105.43 85.6297V85.2997H75.4297V85.6297H105.43ZM90.4297 100.3H92.8197V70.2997H90.4297V100.3ZM77.8197 85.2997V85.6297H107.82V85.2997H77.8197ZM92.8197 70.6297H90.4297V100.63H92.8197V70.6297ZM90.7491 74.4159C92.8199 74.2063 94.9139 74.4609 96.878 75.1641L86.7658 103.408C89.0101 104.212 91.4033 104.503 93.7703 104.263L90.7491 74.4159ZM96.878 75.1641C98.8413 75.867 100.621 76.999 102.089 78.4759L80.8103 99.6234C82.488 101.312 84.5223 102.605 86.7658 103.408L96.878 75.1641ZM102.528 78.9363C103.792 80.3213 104.765 81.9491 105.386 83.723L77.07 93.6335C77.7872 95.6825 78.911 97.5629 80.3718 99.1631L102.528 78.9363ZM105.386 83.723C106.006 85.4957 106.261 87.3749 106.136 89.2474L76.2029 87.252C76.0587 89.4152 76.3534 91.5859 77.07 93.6335L105.386 83.723ZM106.17 88.2497V84.4297H76.1697V88.2497H106.17ZM91.1697 99.4297H91.5497V69.4297H91.1697V99.4297ZM76.5497 84.4297V88.2197H106.55V84.4297H76.5497ZM76.5827 87.2254C76.315 91.2548 77.5964 95.2347 80.1655 98.3511L103.314 79.2683C105.61 82.0542 106.756 85.6119 106.517 89.2139L76.5827 87.2254ZM81.2428 99.5249C82.8663 101.115 84.8147 102.334 86.9527 103.097L97.0428 74.845C98.9874 75.5395 100.76 76.6477 102.237 78.0945L81.2428 99.5249ZM86.9527 103.097C89.0895 103.86 91.3688 104.153 93.6338 103.95L90.9656 74.0692C93.0261 73.8852 95.0994 74.1509 97.0428 74.845L86.9527 103.097ZM91.7359 103.999C95.7935 104.152 99.7538 102.745 102.805 100.071L83.034 77.5081C85.7436 75.1338 89.2602 73.8848 92.8634 74.0203L91.7359 103.999ZM80.0158 96.4375L80.1758 96.7075L105.984 81.4119L105.824 81.1418L80.0158 96.4375ZM82.8975 78.045C84.4222 76.6356 86.2398 75.5843 88.2175 74.965L97.1819 103.594C99.4425 102.887 101.52 101.685 103.262 100.074L82.8975 78.045ZM88.6427 74.8387C89.8338 74.5041 91.0653 74.3362 92.3021 74.3397L92.2173 104.34C93.7516 104.344 95.2793 104.136 96.7567 103.721L88.6427 74.8387Z" fill="black" mask="url(#path-26-inside-9_132_97)"/>
<mask id="path-28-inside-10_132_97" fill="white">
<path d="M101.24 89.3105H100.85V83.9805H104.45V84.3304H101.24V89.3105ZM101.24 86.5905H104.15V86.9805H101.24V86.5905Z"/>
</mask>
<path d="M101.24 89.3105H100.85V83.9805H104.45V84.3304H101.24V89.3105ZM101.24 86.5905H104.15V86.9805H101.24V86.5905Z" fill="black"/>
<path d="M101.24 89.3105V104.31H116.24V89.3105H101.24ZM100.85 89.3105H85.8496V104.31H100.85V89.3105ZM100.85 83.9805V68.9805H85.8496V83.9805H100.85ZM104.45 83.9805H119.45V68.9805H104.45V83.9805ZM104.45 84.3304V99.3304H119.45V84.3304H104.45ZM101.24 84.3304V69.3304H86.2396V84.3304H101.24ZM101.24 86.5905V71.5905H86.2396V86.5905H101.24ZM104.15 86.5905H119.15V71.5905H104.15V86.5905ZM104.15 86.9805V101.98H119.15V86.9805H104.15ZM101.24 86.9805H86.2396V101.98H101.24V86.9805ZM101.24 74.3105H100.85V104.31H101.24V74.3105ZM115.85 89.3105V83.9805H85.8496V89.3105H115.85ZM100.85 98.9805H104.45V68.9805H100.85V98.9805ZM89.4496 83.9805V84.3304H119.45V83.9805H89.4496ZM104.45 69.3304H101.24V99.3304H104.45V69.3304ZM86.2396 84.3304V89.3105H116.24V84.3304H86.2396ZM101.24 101.59H104.15V71.5905H101.24V101.59ZM89.1497 86.5905V86.9805H119.15V86.5905H89.1497ZM104.15 71.9805H101.24V101.98H104.15V71.9805ZM116.24 86.9805V86.5905H86.2396V86.9805H116.24Z" fill="black" mask="url(#path-28-inside-10_132_97)"/>
<mask id="path-30-inside-11_132_97" fill="white">
<path d="M108.07 84.3301C108.029 84.3315 107.989 84.3242 107.951 84.3087C107.913 84.2932 107.879 84.2698 107.85 84.2402C107.821 84.2113 107.798 84.1771 107.783 84.1393C107.767 84.1016 107.759 84.061 107.759 84.0201C107.759 83.9792 107.767 83.9387 107.783 83.901C107.798 83.8632 107.821 83.829 107.85 83.8002C107.879 83.7705 107.913 83.7471 107.951 83.7316C107.989 83.716 108.029 83.7087 108.07 83.7101C108.113 83.7091 108.155 83.7166 108.194 83.732C108.234 83.7475 108.27 83.7707 108.3 83.8002C108.329 83.8269 108.35 83.8597 108.364 83.896C108.378 83.9324 108.384 83.9714 108.38 84.0102C108.383 84.0519 108.378 84.0938 108.364 84.1333C108.35 84.1729 108.329 84.2092 108.3 84.2402C108.27 84.2696 108.234 84.2928 108.194 84.3082C108.155 84.3237 108.113 84.3311 108.07 84.3301ZM107.88 89.3301V85.3301H108.26V89.3301H107.88Z"/>
</mask>
<path d="M108.07 84.3301C108.029 84.3315 107.989 84.3242 107.951 84.3087C107.913 84.2932 107.879 84.2698 107.85 84.2402C107.821 84.2113 107.798 84.1771 107.783 84.1393C107.767 84.1016 107.759 84.061 107.759 84.0201C107.759 83.9792 107.767 83.9387 107.783 83.901C107.798 83.8632 107.821 83.829 107.85 83.8002C107.879 83.7705 107.913 83.7471 107.951 83.7316C107.989 83.716 108.029 83.7087 108.07 83.7101C108.113 83.7091 108.155 83.7166 108.194 83.732C108.234 83.7475 108.27 83.7707 108.3 83.8002C108.329 83.8269 108.35 83.8597 108.364 83.896C108.378 83.9324 108.384 83.9714 108.38 84.0102C108.383 84.0519 108.378 84.0938 108.364 84.1333C108.35 84.1729 108.329 84.2092 108.3 84.2402C108.27 84.2696 108.234 84.2928 108.194 84.3082C108.155 84.3237 108.113 84.3311 108.07 84.3301ZM107.88 89.3301V85.3301H108.26V89.3301H107.88Z" fill="black"/>
<path d="M108.07 84.3301L108.418 69.3342L107.99 69.3242L107.561 69.3388L108.07 84.3301ZM107.85 84.2402L118.721 73.904L118.572 73.7473L118.418 73.595L107.85 84.2402ZM107.85 83.8002L118.418 94.4453L118.572 94.293L118.721 94.1363L107.85 83.8002ZM108.07 83.7101L107.561 98.7015L107.99 98.716L108.418 98.7061L108.07 83.7101ZM108.3 83.8002L97.8672 94.5774L97.917 94.6256L97.9673 94.6734L108.3 83.8002ZM108.38 84.0102L93.4319 82.768L93.3374 83.9049L93.416 85.0429L108.38 84.0102ZM108.3 84.2402L118.734 95.0174L119.074 94.6874L119.394 94.3365L108.3 84.2402ZM107.88 89.3301H92.8804V104.33H107.88V89.3301ZM107.88 85.3301V70.3301H92.8804V85.3301H107.88ZM108.26 85.3301H123.26V70.3301H108.26V85.3301ZM108.26 89.3301V104.33H123.26V89.3301H108.26ZM107.561 69.3388C109.639 69.2682 111.707 69.6388 113.63 70.4255L102.271 98.1919C104.27 99.0096 106.42 99.3948 108.579 99.3215L107.561 69.3388ZM113.63 70.4255C115.541 71.2072 117.279 72.3881 118.721 73.904L96.9801 94.5763C98.4779 96.1516 100.285 97.3792 102.271 98.1919L113.63 70.4255ZM118.418 73.595C119.797 74.9638 120.887 76.589 121.63 78.3738L93.9349 89.9048C94.7095 91.7652 95.8456 93.4589 97.2824 94.8853L118.418 73.595ZM121.63 78.3738C122.377 80.1676 122.759 82.0869 122.759 84.0201H92.7588C92.7588 86.0352 93.1566 88.0356 93.9349 89.9048L121.63 78.3738ZM122.759 84.0201C122.759 85.9564 122.376 87.8755 121.63 89.6665L93.9349 78.1355C93.1578 80.002 92.7588 82.0021 92.7588 84.0201H122.759ZM121.63 89.6665C120.887 91.4514 119.797 93.0765 118.418 94.4453L97.2824 73.155C95.8456 74.5814 94.7095 76.2751 93.9349 78.1355L121.63 89.6665ZM118.721 94.1363C117.288 95.6431 115.553 96.8282 113.63 97.6148L102.271 69.8483C100.273 70.6659 98.4692 71.8979 96.9801 73.464L118.721 94.1363ZM113.63 97.6148C111.707 98.4015 109.639 98.772 107.561 98.7015L108.579 68.7188C106.42 68.6454 104.27 69.0306 102.271 69.8483L113.63 97.6148ZM108.418 98.7061C106.475 98.7512 104.54 98.4097 102.728 97.7007L113.66 69.7634C111.769 69.0235 109.751 68.6671 107.722 68.7142L108.418 98.7061ZM102.728 97.7007C100.91 96.9891 99.2591 95.9249 97.8672 94.5774L118.734 73.0229C117.281 71.6164 115.558 70.5059 113.66 69.7634L102.728 97.7007ZM97.9673 94.6734C96.3688 93.1544 95.1317 91.2962 94.3469 89.236L122.382 78.5561C121.569 76.4232 120.288 74.4995 118.633 72.9269L97.9673 94.6734ZM94.3469 89.236C93.5645 87.1823 93.2487 84.9725 93.4319 82.768L123.329 85.2523C123.518 82.9703 123.192 80.6824 122.382 78.5561L94.3469 89.236ZM93.416 85.0429C93.2792 83.0617 93.5458 81.0761 94.1964 79.2055L122.531 89.0612C123.209 87.1115 123.487 85.0422 123.345 82.9775L93.416 85.0429ZM94.1964 79.2055C94.8487 77.3303 95.8735 75.6089 97.2069 74.1438L119.394 94.3365C120.784 92.8095 121.852 91.0155 122.531 89.0612L94.1964 79.2055ZM97.8672 73.4629C99.268 72.1068 100.921 71.0466 102.728 70.3396L113.66 98.2769C115.546 97.5389 117.272 96.4325 118.734 95.0174L97.8672 73.4629ZM102.728 70.3396C104.54 69.6305 106.475 69.289 108.418 69.3342L107.722 99.3261C109.751 99.3732 111.769 99.0168 113.66 98.2769L102.728 70.3396ZM122.88 89.3301V85.3301H92.8804V89.3301H122.88ZM107.88 100.33H108.26V70.3301H107.88V100.33ZM93.2604 85.3301V89.3301H123.26V85.3301H93.2604ZM108.26 74.3301H107.88V104.33H108.26V74.3301Z" fill="black" mask="url(#path-30-inside-11_132_97)"/>
<mask id="path-32-inside-12_132_97" fill="white">
<path d="M111.53 85.6297V85.2997H113.92V85.6297H111.53ZM113.35 89.3397C113.202 89.3506 113.054 89.3305 112.915 89.2806C112.775 89.2306 112.648 89.152 112.54 89.0497C112.347 88.8294 112.246 88.5426 112.26 88.2497V84.4297H112.62V88.2197C112.606 88.4334 112.674 88.6444 112.81 88.8097C112.882 88.8807 112.968 88.9354 113.063 88.9699C113.158 89.0044 113.26 89.018 113.36 89.0097C113.588 89.0203 113.81 88.9413 113.98 88.7897L114.15 89.0597C114.042 89.1603 113.912 89.2354 113.77 89.2797C113.634 89.3179 113.492 89.338 113.35 89.3397V89.3397Z"/>
</mask>
<path d="M111.53 85.6297V85.2997H113.92V85.6297H111.53ZM113.35 89.3397C113.202 89.3506 113.054 89.3305 112.915 89.2806C112.775 89.2306 112.648 89.152 112.54 89.0497C112.347 88.8294 112.246 88.5426 112.26 88.2497V84.4297H112.62V88.2197C112.606 88.4334 112.674 88.6444 112.81 88.8097C112.882 88.8807 112.968 88.9354 113.063 88.9699C113.158 89.0044 113.26 89.018 113.36 89.0097C113.588 89.0203 113.81 88.9413 113.98 88.7897L114.15 89.0597C114.042 89.1603 113.912 89.2354 113.77 89.2797C113.634 89.3179 113.492 89.338 113.35 89.3397V89.3397Z" fill="black"/>
<path d="M111.53 85.6297H96.5303V100.63H111.53V85.6297ZM111.53 85.2997V70.2997H96.5303V85.2997H111.53ZM113.92 85.2997H128.92V70.2997H113.92V85.2997ZM113.92 85.6297V100.63H128.92V85.6297H113.92ZM112.54 89.0497L101.274 98.953L101.71 99.449L102.188 99.9048L112.54 89.0497ZM112.26 88.2497L127.243 88.9659L127.26 88.608V88.2497H112.26ZM112.26 84.4297V69.4297H97.2603V84.4297H112.26ZM112.62 84.4297H127.62V69.4297H112.62V84.4297ZM112.62 88.2197L127.587 89.2139L127.62 88.7174V88.2197H112.62ZM112.81 88.8097L101.236 98.3511L101.72 98.938L102.261 99.473L112.81 88.8097ZM113.36 89.0097L114.061 74.0261L113.092 73.9807L112.124 74.0607L113.36 89.0097ZM113.98 88.7897L126.673 80.7964L117.222 65.7894L103.992 77.5992L113.98 88.7897ZM114.15 89.0597L124.333 100.074L133.485 91.6135L126.843 81.0664L114.15 89.0597ZM113.77 89.2797L117.806 103.727L118.03 103.664L118.253 103.594L113.77 89.2797ZM126.53 85.6297V85.2997H96.5303V85.6297H126.53ZM111.53 100.3H113.92V70.2997H111.53V100.3ZM98.9203 85.2997V85.6297H128.92V85.2997H98.9203ZM113.92 70.6297H111.53V100.63H113.92V70.6297ZM112.24 74.3808C114.181 74.2368 116.133 74.5005 117.971 75.1584L107.858 103.403C109.975 104.161 112.224 104.464 114.46 104.299L112.24 74.3808ZM117.971 75.1584C119.806 75.8156 121.483 76.8502 122.892 78.1946L102.188 99.9048C103.812 101.454 105.744 102.646 107.858 103.403L117.971 75.1584ZM123.806 79.1464C126.183 81.8504 127.415 85.3717 127.243 88.9659L97.2774 87.5335C97.0776 91.7134 98.5101 95.8085 101.274 98.953L123.806 79.1464ZM127.26 88.2497V84.4297H97.2603V88.2497H127.26ZM112.26 99.4297H112.62V69.4297H112.26V99.4297ZM97.6203 84.4297V88.2197H127.62V84.4297H97.6203ZM97.6533 87.2254C97.3856 91.2548 98.667 95.2347 101.236 98.3511L124.384 79.2683C126.681 82.0542 127.827 85.6119 127.587 89.2139L97.6533 87.2254ZM102.261 99.473C103.873 101.068 105.81 102.293 107.937 103.067L118.19 74.873C120.127 75.5774 121.891 76.6932 123.36 78.1464L102.261 99.473ZM107.937 103.067C110.063 103.84 112.335 104.146 114.596 103.959L112.124 74.0607C114.184 73.8904 116.253 74.169 118.19 74.873L107.937 103.067ZM112.659 103.993C116.811 104.188 120.871 102.746 123.969 99.9802L103.992 77.5992C106.75 75.1371 110.365 73.8532 114.061 74.0261L112.659 103.993ZM101.287 96.7829L101.458 97.053L126.843 81.0664L126.673 80.7964L101.287 96.7829ZM103.968 78.045C105.493 76.6356 107.31 75.5843 109.288 74.965L118.253 103.594C120.513 102.887 122.59 101.685 124.333 100.074L103.968 78.045ZM109.735 74.8328C110.857 74.5192 112.015 74.3539 113.18 74.3406L113.521 104.339C114.969 104.322 116.41 104.117 117.806 103.727L109.735 74.8328Z" fill="black" mask="url(#path-32-inside-12_132_97)"/>
<path d="M25.7005 48.9804C26.8505 55.4004 25.2205 58.3004 24.2505 58.9804C25.4105 59.2704 26.2505 61.1104 24.3505 62.1704C24.1226 62.2445 23.8812 62.2672 23.6436 62.2368C23.4059 62.2064 23.1779 62.1236 22.9761 61.9945C22.7743 61.8654 22.6037 61.6931 22.4764 61.4901C22.3492 61.287 22.2687 61.0584 22.2405 60.8204C22.2037 60.6082 22.2107 60.3907 22.261 60.1812C22.3114 59.9718 22.404 59.7748 22.5333 59.6025C22.6625 59.4302 22.8256 59.2861 23.0126 59.1791C23.1995 59.0721 23.4064 59.0045 23.6205 58.9804C22.5829 57.0593 20.997 55.4904 19.0648 54.4736C17.1326 53.4567 14.9415 53.0379 12.7705 53.2704V55.7904C17.9205 55.1704 20.7705 58.3004 21.4105 59.9504C19.3947 60.649 17.6551 61.9741 16.4461 63.7319C15.2371 65.4897 14.6219 67.5881 14.6905 69.7204H16.9005C17.5705 63.4304 20.2605 63.2404 22.2805 62.3704C21.9518 64.5204 22.3023 66.7193 23.2828 68.6606C24.2633 70.6019 25.8251 72.1889 27.7505 73.2004C28.0395 72.4818 28.2637 71.7389 28.4205 70.9804C24.9705 69.5104 24.6105 64.9804 24.7805 62.9804C27.8505 65.3804 34.3805 64.0404 36.3005 61.6204L34.6205 59.9004C29.7205 63.9004 26.2605 60.9604 25.9705 60.4804C29.7205 55.8304 28.3705 50.6104 28.0905 48.1904C27.2645 48.3551 26.4619 48.6204 25.7005 48.9804Z" fill="black"/>
<path d="M0 87.9502H23.28" stroke="black" stroke-width="0.5" stroke-miterlimit="10"/>
<path d="M118.72 87.9502H142" stroke="black" stroke-width="0.5" stroke-miterlimit="10"/>
<path d="M145.7 47.0298V33.5598C113.12 11.9198 77.4002 15.4798 43.4902 29.7198C58.8002 26.1598 103.48 15.1298 145.7 47.0298Z" fill="#EDE7D9"/>
<path d="M0.339844 -0.0195312H145.82V28.7505C113.22 4.06049 63.9499 10.8904 63.9499 10.8904C63.9499 10.8904 29.2298 35.4205 0.339844 51.4005V-0.0195312Z" fill="black"/>
<path d="M0.339844 70.2297V51.1397C36.1398 1.96969 107.4 -4.2103 145.51 28.5297C88.8399 -10.2003 15.0498 30.1097 0.339844 70.2297Z" fill="#EDE7D9"/>
</g>
<defs>
<clipPath id="clip0_132_97">
<rect width="145.82" height="89.35" fill="white"/>
</clipPath>
</defs>
</svg>
