<svg id="Layer_1" data-name="Layer 1" xmlns="http://www.w3.org/2000/svg" viewBox="0 0 467.77 496.12"><defs><style>.cls-1{fill:#523719;}</style></defs><path class="cls-1" d="M500,239.61c22.91,127.68-9.55,185.24-28.64,198.06,22.91,5.77,40.09,42.31,1.91,63.46-13.37,3.85-38.19,0-42-26.92C427.54,448.32,449,439,457.94,437.67c-55-106.14-168-119.86-215.74-113.45v50c102.33-12.31,158.47,50,171.83,82.68C299.48,500,280.38,597.28,280.38,651.12H324.3c13.36-125,66.82-128.84,106.92-146.14C415.94,629.59,497.4,700.47,540,720.35c2.55-3.21,5.73-16.54,13.37-44.23-68.74-29.23-75.74-118.58-72.55-159.6C542,564.2,671.78,537.67,710,489.59L677.51,456.9c-97.37,78.84-166.11,21.16-171.83,11.54,74.46-92.3,47.73-196.14,42-244.21C544.5,224.23,530.5,227.3,500,239.61Z" transform="translate(-242.2 -224.23)"/></svg>