<svg width="188" height="235" viewBox="0 0 188 235" fill="none" xmlns="http://www.w3.org/2000/svg">
<path d="M168.698 104.757L187.173 69.1428C187.657 68.1985 187.62 67.0675 187.068 66.1564C186.519 65.2488 185.529 64.6955 184.464 64.6955H137.324L137.325 18.8461C137.325 18.3871 137.208 17.9629 137.025 17.5719C137.015 17.5492 137.023 17.5248 137.013 17.5039C136.981 17.441 136.913 17.4148 136.878 17.3555C136.664 16.9855 136.385 16.6818 136.041 16.4304C135.931 16.3501 135.835 16.2768 135.716 16.2122C135.281 15.9731 134.807 15.8021 134.276 15.8021L49.5032 15.8003V13.1717C49.5032 6.13948 43.7797 0.416016 36.7475 0.416016C29.7153 0.416016 23.9918 6.13948 23.9918 13.1717V197.114L15.8023 197.113C14.1214 197.113 12.7565 198.477 12.7565 200.158V211.545H3.15858C1.47773 211.545 0.112793 212.91 0.112793 214.591V231.955C0.112793 233.635 1.47773 235 3.15858 235H70.3397C72.0205 235 73.3854 233.635 73.3854 231.955V214.591C73.3854 212.91 72.0205 211.545 70.3397 211.545H60.7417V200.158C60.7417 198.477 59.3768 197.113 57.6959 197.113H49.5064V100.727H93.4916V141.781C93.4916 143.462 94.86 144.827 96.5409 144.827H184.473C185.536 144.827 186.525 144.272 187.077 143.366C187.627 142.455 187.665 141.324 187.182 140.379L168.698 104.757ZM30.0816 13.1696C30.0816 9.49546 33.0715 6.50558 36.7456 6.50558C40.4198 6.50558 43.4097 9.4955 43.4097 13.1696V197.112H30.0816L30.0799 13.1696H30.0816ZM67.2892 217.635V228.907H6.20293V217.635H67.2892ZM54.6452 203.202V211.543H18.8465V203.202H54.6452ZM94.125 65.8774C94.05 65.9751 94.029 66.0921 93.9679 66.1968C93.8527 66.3853 93.7515 66.5703 93.6799 66.7833C93.6189 66.9683 93.5927 67.1481 93.5665 67.3383C93.5473 67.4762 93.4862 67.5984 93.4862 67.7398V94.6283H49.501V21.8886H128.072L94.125 65.8774ZM131.226 27.7797V64.6937H102.735L131.226 27.7797ZM99.5849 138.728V70.7872H179.456L162.563 103.354C162.11 104.232 162.11 105.281 162.563 106.158L179.456 138.73L99.5849 138.728Z" fill="#EBE5D9"/>
</svg>
