<?xml version="1.0" standalone="no"?>
<!DOCTYPE svg PUBLIC "-//W3C//DTD SVG 20010904//EN"
 "http://www.w3.org/TR/2001/REC-SVG-20010904/DTD/svg10.dtd">
<svg version="1.0" xmlns="http://www.w3.org/2000/svg"
 width="1125.000000pt" height="675.000000pt" viewBox="0 0 1125.000000 675.000000"
 preserveAspectRatio="xMidYMid meet">

<g transform="translate(0.000000,675.000000) scale(0.100000,-0.100000)"
fill="#000000" stroke="none">
<path d="M0 3375 l0 -3375 647 0 647 0 -41 35 c-54 46 -171 200 -227 299 -53
92 -100 217 -116 306 -6 34 -10 64 -8 66 2 2 32 -39 66 -91 35 -52 94 -128
131 -169 38 -42 82 -97 97 -123 36 -62 161 -231 179 -240 7 -5 32 -25 54 -46
l40 -37 261 2 261 3 -121 104 c-167 144 -255 280 -315 487 -93 321 15 688 323
1104 77 104 161 202 567 666 442 505 677 818 895 1194 135 233 287 551 351
739 11 30 60 124 110 207 148 252 287 559 333 739 123 486 -86 971 -603 1402
l-124 103 -1261 -1 c-742 0 -1253 -4 -1241 -9 86 -38 407 -175 435 -185 45
-17 372 -160 397 -174 10 -6 63 -33 118 -59 197 -96 321 -166 549 -306 40 -25
131 -94 223 -168 l71 -58 11 -67 c5 -38 12 -98 13 -134 l4 -65 -126 129 c-69
71 -177 171 -240 221 -105 84 -352 256 -367 256 -3 0 -41 20 -83 44 -115 67
-392 204 -637 315 -120 54 -296 135 -391 180 l-173 81 -355 0 -354 0 0 -3375z
m3200 1690 c0 -184 -38 -416 -105 -640 -36 -118 -115 -328 -121 -322 -2 1 10
47 26 101 47 155 63 265 66 441 1 111 9 197 24 280 12 66 24 180 27 253 l6
133 38 -68 c38 -67 38 -69 39 -178z m111 -176 l20 -66 -21 -89 c-67 -277 -208
-628 -373 -929 -102 -187 -337 -555 -337 -529 0 6 4 14 9 20 9 9 61 102 178
319 176 325 287 594 373 905 33 117 65 317 76 464 l7 100 24 -65 c13 -35 33
-94 44 -130z m-2432 -4202 c18 -155 82 -320 182 -472 l40 -60 -42 45 c-147
159 -212 339 -200 550 3 58 8 45 20 -63z"/>
<path d="M7662 5899 c-154 -30 -285 -160 -321 -320 -16 -69 -13 -228 5 -290
26 -88 47 -119 156 -235 133 -141 173 -190 244 -299 73 -112 132 -256 147
-357 20 -139 -19 -255 -121 -358 -221 -221 -532 -217 -796 11 -83 71 -183 228
-230 359 l-33 93 -30 -64 c-150 -319 -95 -625 159 -879 176 -176 382 -270 628
-286 457 -30 888 225 1109 656 131 254 187 544 160 829 -19 210 -62 359 -155
545 -172 342 -387 532 -667 590 -81 17 -185 19 -255 5z"/>
<path d="M6543 2995 c0 -48 7 -55 27 -30 16 20 50 19 50 0 0 -9 11 -27 25 -41
20 -20 22 -26 10 -30 -9 -4 -24 -4 -35 -1 -20 5 -30 -10 -30 -44 0 -22 28 -26
36 -4 4 8 14 15 25 15 15 0 18 -9 21 -62 3 -57 5 -63 26 -66 21 -3 22 0 22 62
0 60 2 66 20 66 11 0 23 -7 26 -15 9 -23 34 -18 34 8 0 32 -11 42 -45 42 -23
0 -31 5 -33 22 -2 13 -11 23 -25 25 -12 2 -23 11 -25 21 -4 22 40 24 58 2 20
-24 25 -18 25 30 0 48 -5 54 -25 30 -9 -11 -32 -15 -80 -15 -48 0 -71 4 -80
15 -20 25 -27 18 -27 -30z"/>
<path d="M7850 2996 c0 -14 11 -33 25 -44 33 -26 32 -30 -12 -34 -33 -3 -38
-7 -41 -30 -4 -32 12 -36 39 -12 29 26 39 8 39 -72 0 -72 1 -74 25 -74 24 0
25 2 25 75 0 61 3 77 16 82 10 4 20 0 26 -10 15 -28 40 -21 36 11 -3 23 -8 27
-40 30 -28 2 -38 8 -38 20 0 10 -10 22 -22 27 -13 6 -24 20 -26 33 -5 33 -52
31 -52 -2z"/>
<path d="M4654 2997 c-3 -8 -4 -19 -2 -24 2 -6 -9 -22 -24 -36 -27 -25 -28
-31 -28 -117 0 -89 1 -91 23 -88 20 3 22 9 25 85 3 88 18 117 47 93 10 -8 15
-37 17 -93 3 -78 4 -82 27 -85 60 -9 121 20 121 56 0 30 -17 45 -56 51 -36 6
-39 9 -45 46 -4 23 -16 46 -30 58 -13 10 -24 28 -24 40 0 26 -42 37 -51 14z
m152 -199 c8 -12 -24 -40 -37 -32 -5 3 -9 14 -9 25 0 21 34 27 46 7z"/>
<path d="M6336 2989 c-17 -25 -11 -47 18 -71 21 -17 20 -18 -21 -18 -28 0 -43
-5 -43 -12 0 -7 -3 -23 -6 -35 -7 -27 16 -32 36 -8 7 9 20 14 29 13 13 -3 16
-16 16 -63 0 -54 2 -60 21 -63 20 -3 22 3 26 57 5 69 12 81 36 63 45 -32 55
-29 46 16 -6 28 -10 32 -40 32 -34 0 -46 13 -20 23 20 8 26 43 9 66 -20 29
-86 29 -107 0z m72 -26 c-2 -10 -10 -18 -18 -18 -8 0 -16 8 -18 18 -2 12 3 17
18 17 15 0 20 -5 18 -17z"/>
<path d="M10100 2989 c0 -12 -13 -34 -30 -49 -28 -26 -30 -34 -30 -94 0 -58 3
-70 25 -91 16 -17 35 -25 60 -25 25 0 44 8 60 25 22 21 25 33 25 91 0 60 -2
68 -30 94 -16 15 -30 37 -30 49 0 16 -6 21 -25 21 -19 0 -25 -5 -25 -21z m48
-81 c12 -12 16 -95 6 -122 -7 -19 -35 -21 -52 -4 -7 7 -12 35 -12 63 0 49 12
75 35 75 6 0 16 -5 23 -12z"/>
<path d="M10260 2983 c1 -16 7 -39 15 -53 9 -16 14 -56 15 -112 0 -87 0 -88
25 -88 23 0 24 2 27 81 2 65 7 84 20 93 30 18 43 -8 47 -95 3 -75 4 -80 25
-77 20 3 21 9 21 86 0 80 -1 85 -29 108 -22 20 -37 24 -70 22 -40 -3 -41 -2
-44 30 -3 26 -7 32 -28 32 -20 0 -24 -5 -24 -27z"/>
<path d="M4924 2980 c-42 -17 -68 -83 -46 -116 22 -34 77 -42 122 -19 26 14
30 21 30 60 0 25 5 45 10 45 6 0 13 1 18 3 4 1 8 -13 9 -31 2 -39 18 -62 44
-62 24 0 24 -7 -1 -61 -25 -56 -25 -69 1 -69 15 0 28 17 54 74 48 106 56 140
38 165 -13 19 -24 21 -136 20 -67 0 -132 -4 -143 -9z m56 -71 c0 -38 -1 -40
-27 -37 -48 5 -40 78 8 78 16 0 19 -8 19 -41z m182 35 c12 -11 -5 -44 -23 -44
-22 0 -31 13 -23 34 6 15 35 22 46 10z"/>
<path d="M5260 2955 c0 -30 5 -39 30 -53 27 -15 30 -22 26 -50 -5 -43 8 -90
31 -108 29 -22 81 -17 108 11 23 23 25 31 25 130 l0 105 -25 0 c-25 0 -25 0
-25 -94 0 -108 -5 -126 -31 -126 -26 0 -41 42 -38 104 3 46 1 51 -21 56 -18 4
-26 14 -28 33 -3 21 -9 27 -28 27 -21 0 -24 -5 -24 -35z"/>
<path d="M5650 2970 c-26 -26 -25 -54 5 -118 14 -30 25 -70 25 -89 0 -30 3
-34 23 -31 19 3 22 9 22 54 0 42 4 54 27 75 38 34 44 68 18 102 -27 34 -89 38
-120 7z m84 -32 c7 -12 5 -24 -9 -44 -17 -26 -18 -27 -31 -9 -17 23 -18 47 -2
63 15 15 28 11 42 -10z"/>
<path d="M5830 2972 c0 -21 30 -52 49 -52 8 0 10 -7 6 -20 -5 -16 -2 -20 14
-20 27 0 26 -13 -4 -78 -31 -67 -31 -72 -1 -72 19 0 28 9 43 45 10 25 23 43
28 42 6 -2 17 -22 25 -45 13 -39 40 -56 53 -34 9 13 -22 87 -44 105 -19 15
-20 21 -11 42 11 23 10 25 -13 25 -19 0 -25 5 -25 21 0 16 -5 20 -19 16 -23
-6 -51 10 -51 28 0 9 -10 15 -25 15 -18 0 -25 -5 -25 -18z"/>
<path d="M6143 2974 c-35 -17 -53 -59 -53 -121 0 -30 3 -33 29 -33 28 0 30 -3
33 -42 2 -36 7 -44 26 -46 21 -3 22 0 22 62 l0 66 -30 0 c-25 0 -30 4 -30 23
0 54 53 85 87 51 21 -20 36 -4 27 30 -5 22 -11 26 -43 26 -20 0 -51 -8 -68
-16z"/>
<path d="M6905 2976 c-37 -16 -55 -52 -55 -111 0 -43 1 -45 30 -45 29 0 30 -2
30 -45 0 -41 2 -45 25 -45 24 0 25 2 25 65 l0 65 -30 0 c-26 0 -30 4 -30 28 0
51 54 80 87 47 20 -21 30 -11 25 25 -4 27 -8 30 -41 30 -20 -1 -50 -7 -66 -14z"/>
<path d="M7150 2960 c0 -20 9 -39 25 -54 16 -15 25 -34 25 -52 0 -44 17 -95
37 -110 29 -22 81 -17 108 11 23 23 25 31 25 130 0 105 0 105 -25 105 -24 0
-24 -1 -27 -107 -3 -103 -4 -108 -26 -111 -28 -4 -34 11 -36 90 -1 57 -3 63
-26 68 -18 4 -26 14 -28 33 -3 21 -9 27 -28 27 -20 0 -24 -5 -24 -30z"/>
<path d="M7446 2971 c-32 -35 -19 -108 24 -131 15 -8 17 -16 11 -33 -4 -12
-11 -34 -15 -49 -6 -25 -4 -28 18 -28 18 0 26 7 31 28 4 15 20 54 36 87 33 68
36 91 13 123 -20 29 -93 31 -118 3z m74 -26 c11 -13 8 -15 -14 -15 -25 0 -33
10 -19 23 10 11 19 8 33 -8z m0 -49 c0 -21 -21 -31 -31 -15 -14 22 -11 29 11
29 11 0 20 -6 20 -14z"/>
<path d="M7683 2980 c-33 -14 -55 -54 -56 -107 -2 -47 -1 -48 31 -51 31 -3 32
-5 32 -48 0 -40 2 -44 25 -44 24 0 25 2 25 65 l0 65 -36 0 c-35 0 -35 1 -29
33 12 55 46 70 91 40 l26 -16 -4 34 c-3 32 -5 34 -43 36 -22 1 -50 -2 -62 -7z"/>
<path d="M8240 2984 c0 -3 5 -14 10 -25 9 -16 6 -25 -19 -50 -30 -30 -61 -109
-61 -157 0 -24 2 -24 52 -20 34 4 56 12 65 24 26 36 10 84 -29 84 -10 0 -18 3
-18 6 0 13 22 44 31 44 5 0 26 -35 47 -77 28 -59 42 -79 60 -81 29 -4 28 4 -7
80 -16 35 -41 89 -55 121 -21 48 -29 57 -50 57 -15 0 -26 -3 -26 -6z m17 -191
c2 -6 -5 -17 -16 -23 -19 -10 -21 -8 -21 15 0 19 5 26 17 23 9 -2 18 -8 20
-15z"/>
<path d="M8440 2970 c-26 -26 -25 -46 5 -114 14 -31 25 -72 25 -91 0 -31 3
-35 25 -35 20 0 25 5 25 25 0 16 6 25 15 25 8 0 15 -4 15 -9 0 -10 30 -24 37
-17 3 3 2 18 -2 35 -6 27 -11 31 -41 31 -19 0 -34 3 -34 6 0 3 16 21 36 40 32
29 36 38 30 66 -3 18 -14 39 -23 46 -27 19 -90 15 -113 -8z m78 -22 c17 -17
15 -38 -4 -60 -16 -17 -18 -17 -30 0 -7 9 -14 24 -14 33 0 15 18 39 30 39 3 0
11 -5 18 -12z"/>
<path d="M8748 2978 c-29 -24 -30 -64 -3 -118 14 -28 25 -66 25 -90 0 -36 2
-40 26 -40 25 0 25 2 23 56 -2 47 0 58 17 66 47 25 59 83 24 118 -23 23 -87
27 -112 8z m70 -30 c18 -18 14 -56 -7 -67 -16 -9 -21 -6 -31 19 -10 24 -10 33
0 45 15 18 22 19 38 3z"/>
<path d="M8994 2980 c-12 -5 -31 -21 -43 -36 -18 -23 -21 -40 -21 -121 0 -92
1 -94 23 -91 13 2 21 9 19 18 -2 8 -1 53 3 98 7 82 8 84 38 97 53 22 57 14 57
-106 0 -102 1 -109 20 -109 19 0 20 7 20 110 l0 110 33 0 c51 0 57 -13 57
-122 l0 -98 38 0 c46 0 82 23 82 54 0 28 -18 46 -46 46 -19 0 -22 6 -26 61 -6
86 -20 96 -140 97 -51 0 -103 -3 -114 -8z m281 -195 c0 -10 -6 -20 -12 -22 -8
-3 -13 5 -13 22 0 17 5 25 13 23 6 -3 12 -13 12 -23z"/>
<path d="M9399 2975 c-31 -17 -49 -61 -49 -116 0 -37 2 -39 30 -39 29 0 30 -2
30 -45 0 -41 2 -45 25 -45 24 0 25 2 25 65 l0 65 -30 0 c-26 0 -30 4 -30 28 0
50 47 76 90 50 24 -15 30 -10 23 25 -5 24 -9 27 -47 27 -22 -1 -53 -7 -67 -15z"/>
<path d="M9704 2980 c-28 -11 -54 -48 -54 -78 0 -31 43 -72 75 -72 14 0 39 7
55 15 26 14 30 21 30 60 0 38 3 45 20 45 16 0 20 -7 20 -33 0 -37 15 -57 42
-57 23 0 23 -8 -2 -65 -25 -59 -25 -65 4 -65 20 0 28 13 65 104 22 57 41 108
41 113 0 6 -8 17 -18 26 -15 14 -40 17 -138 16 -65 0 -129 -4 -140 -9z m56
-71 c0 -38 -1 -40 -27 -37 -48 5 -40 78 8 78 16 0 19 -8 19 -41z m190 30 c0
-6 -5 -19 -10 -29 -14 -25 -40 -15 -40 16 0 19 5 24 25 24 14 0 25 -5 25 -11z"/>
<path d="M10580 2984 c0 -3 5 -14 11 -26 9 -16 7 -24 -10 -39 -31 -29 -58 -88
-66 -143 l-8 -49 51 5 c61 6 82 21 82 57 0 31 -16 51 -42 51 -10 0 -18 3 -18
6 0 13 22 44 31 44 5 0 26 -35 47 -77 28 -59 42 -79 60 -81 29 -4 28 3 -14 95
-20 43 -45 97 -55 121 -15 33 -23 42 -44 42 -14 0 -25 -3 -25 -6z m15 -194 c0
-8 -8 -16 -17 -18 -13 -2 -18 3 -18 18 0 15 5 20 18 18 9 -2 17 -10 17 -18z"/>
<path d="M4730 2629 c-78 -23 -124 -106 -96 -172 20 -48 56 -72 138 -92 87
-21 104 -31 86 -52 -15 -19 -86 -10 -143 18 l-40 19 -37 -42 -37 -43 22 -17
c66 -52 229 -69 302 -32 55 29 80 66 80 119 0 66 -27 96 -111 122 -38 12 -82
24 -97 28 -20 4 -27 11 -25 23 6 30 60 26 148 -12 10 -4 23 7 43 37 15 24 27
47 27 51 0 4 -20 16 -45 27 -53 24 -165 33 -215 18z"/>
<path d="M6195 2632 l-60 -3 -85 -205 c-47 -113 -86 -209 -88 -215 -2 -5 29
-9 71 -9 74 0 75 0 86 30 10 30 10 30 86 30 76 0 77 0 88 -30 11 -30 12 -30
89 -30 l77 0 -35 83 c-20 45 -59 140 -87 210 -29 71 -59 132 -67 135 -8 4 -42
6 -75 4z m30 -208 c23 -55 20 -64 -20 -64 -19 0 -35 3 -35 7 0 11 32 93 36 93
2 0 11 -16 19 -36z"/>
<path d="M7735 2623 c-109 -57 -156 -189 -106 -299 58 -128 248 -163 351 -65
22 21 40 43 40 49 0 6 -24 24 -54 39 l-53 29 -21 -23 c-15 -17 -31 -23 -61
-23 -49 0 -81 35 -81 87 0 90 74 132 137 79 l29 -24 50 30 c27 17 51 32 53 34
10 9 -45 65 -82 83 -53 26 -157 28 -202 4z"/>
<path d="M8810 2629 c-44 -18 -90 -59 -112 -102 -32 -61 -31 -157 2 -215 73
-128 261 -148 360 -39 16 18 29 34 30 37 0 3 -25 20 -56 38 l-56 32 -20 -25
c-15 -19 -29 -25 -59 -25 -47 0 -75 24 -84 74 -18 92 82 151 143 86 19 -20 19
-20 66 6 58 33 65 48 36 79 -54 57 -176 83 -250 54z"/>
<path d="M5045 2415 l0 -215 183 0 182 0 0 55 c0 50 -2 55 -22 56 -13 0 -63 1
-113 2 -89 2 -90 2 -90 27 0 25 1 25 103 28 l102 3 0 49 0 50 -105 0 -105 0 0
25 0 25 115 0 115 0 0 55 0 55 -182 0 -183 0 0 -215z"/>
<path d="M5455 2613 c2 -10 4 -107 4 -215 l1 -198 65 0 64 0 3 108 3 107 45
-72 c25 -40 48 -72 51 -73 4 0 26 29 49 65 23 36 46 65 51 65 5 0 9 -45 9
-100 l0 -100 70 0 70 0 0 215 0 215 -75 0 -76 0 -37 -59 c-20 -33 -42 -67 -47
-77 -9 -14 -18 -5 -55 57 l-45 74 -77 3 c-69 3 -76 1 -73 -15z"/>
<path d="M6480 2415 l0 -215 70 0 70 0 0 80 0 81 68 -3 67 -3 3 -77 3 -78 69
0 70 0 0 215 0 215 -70 0 -70 0 0 -75 0 -75 -70 0 -70 0 0 75 0 75 -70 0 -70
0 0 -215z"/>
<path d="M7090 2413 l0 -213 65 0 64 0 3 108 3 107 45 -72 c25 -40 48 -73 52
-73 4 0 27 29 49 65 46 71 60 80 58 38 -1 -16 -1 -61 0 -100 l1 -73 65 0 65 0
-2 213 -3 212 -50 3 c-77 4 -87 -2 -134 -78 -24 -39 -47 -68 -51 -63 -5 4 -26
37 -49 73 l-41 65 -70 0 -70 1 0 -213z"/>
<path d="M8067 2624 c-4 -4 -7 -101 -7 -216 l0 -208 70 0 69 0 3 78 3 77 54 3
c30 2 58 -1 62 -5 5 -5 9 -41 10 -81 l1 -72 69 0 69 0 0 209 c0 237 8 217 -90
216 l-45 0 -2 -65 c-1 -36 -2 -71 -2 -77 -1 -9 -21 -13 -66 -13 l-64 0 -3 78
-3 77 -60 3 c-34 2 -64 0 -68 -4z"/>
<path d="M9900 2580 c0 -33 -3 -40 -20 -40 -17 0 -20 -7 -20 -50 0 -43 3 -50
20 -50 18 0 20 -7 20 -81 0 -66 4 -86 21 -110 25 -36 84 -53 142 -42 l42 9 3
53 c3 51 2 53 -18 48 -41 -11 -50 1 -50 64 l0 59 35 0 35 0 0 50 0 50 -35 0
c-34 0 -35 1 -35 40 l0 40 -70 0 -70 0 0 -40z"/>
<path d="M9225 2543 c-33 -9 -84 -52 -101 -86 -24 -45 -23 -125 2 -167 55 -94
194 -117 279 -45 l30 25 -34 30 c-31 26 -36 28 -55 15 -29 -21 -80 -19 -101 5
-15 17 -16 20 -3 25 8 3 19 5 24 4 5 -1 49 -1 97 0 l89 1 -7 43 c-9 56 -40
110 -76 131 -30 18 -110 29 -144 19z m73 -99 c37 -26 28 -44 -23 -44 -49 0
-59 15 -29 44 19 20 24 20 52 0z"/>
<path d="M10235 2536 c-95 -42 -133 -152 -85 -245 48 -95 198 -118 281 -43
l30 27 -36 28 c-34 27 -38 28 -54 13 -31 -28 -111 -15 -111 19 0 10 18 14 78
14 150 0 135 -5 130 45 -13 116 -130 188 -233 142z m95 -96 c30 -30 24 -40
-25 -40 -37 0 -45 3 -45 18 0 21 18 42 37 42 7 0 22 -9 33 -20z"/>
<path d="M9652 2514 c-33 -26 -33 -26 -39 -5 -5 19 -13 21 -69 21 l-64 0 0
-165 0 -165 65 0 65 0 1 83 c1 106 8 131 39 135 39 6 50 -21 50 -125 l0 -93
65 0 65 0 0 130 c0 141 -7 168 -50 193 -41 25 -89 21 -128 -9z"/>
<path d="M10710 2533 c-8 -3 -27 -17 -42 -31 l-28 -26 0 28 0 27 -67 -3 c-38
-2 -67 -6 -65 -10 1 -5 2 -78 2 -163 l0 -155 64 0 64 0 4 76 c3 65 7 79 27 95
13 10 34 19 47 19 28 0 37 25 32 95 -3 49 -10 58 -38 48z"/>
<path d="M5974 993 c3 -10 10 -38 16 -63 18 -72 21 -80 30 -80 5 0 14 19 20
43 22 85 27 87 41 19 7 -34 18 -61 23 -59 11 4 56 149 49 157 -8 8 -20 -21
-33 -78 l-13 -57 -16 64 c-9 36 -21 66 -27 68 -6 2 -17 -23 -24 -57 -7 -33
-16 -60 -20 -60 -4 0 -11 21 -15 46 -3 26 -9 53 -12 60 -8 20 -25 17 -19 -3z"/>
<path d="M6232 930 c11 -44 24 -80 28 -80 5 0 17 28 27 63 l19 62 15 -59 c8
-33 19 -61 25 -63 5 -2 19 33 31 77 12 44 17 80 12 80 -4 0 -13 -19 -19 -42
-25 -98 -26 -98 -40 -25 -7 39 -17 66 -23 64 -6 -2 -18 -29 -27 -61 -14 -52
-30 -66 -30 -27 0 28 -21 91 -29 91 -5 0 0 -36 11 -80z"/>
<path d="M6472 930 c11 -44 24 -80 28 -80 5 0 17 28 27 63 l19 62 15 -59 c8
-33 19 -61 25 -63 5 -2 19 33 31 77 12 44 17 80 12 80 -4 0 -13 -19 -19 -42
-25 -98 -26 -98 -40 -25 -7 39 -17 66 -23 64 -6 -2 -18 -29 -27 -61 -14 -52
-30 -66 -30 -27 0 28 -21 91 -29 91 -5 0 0 -36 11 -80z"/>
<path d="M6797 992 c-25 -27 -21 -40 18 -63 49 -29 48 -59 -2 -59 -30 -1 -34
-3 -21 -11 23 -13 66 -1 73 21 8 27 -4 47 -36 60 -37 16 -35 44 4 48 15 2 25
8 22 13 -10 15 -41 10 -58 -9z"/>
<path d="M6950 930 l0 -80 40 0 c22 0 40 5 40 10 0 6 -13 10 -30 10 -25 0 -30
4 -30 25 0 21 5 25 30 25 17 0 30 5 30 10 0 6 -13 10 -30 10 -25 0 -30 4 -30
25 0 21 5 25 30 25 17 0 30 5 30 10 0 6 -18 10 -40 10 l-40 0 0 -80z"/>
<path d="M7110 961 c0 -27 -3 -63 -6 -80 -4 -20 -3 -31 5 -31 7 0 11 22 11 60
0 33 3 60 8 60 4 0 15 -27 25 -60 9 -33 21 -60 26 -60 4 0 16 27 26 60 10 33
22 60 27 60 4 0 8 -27 8 -60 0 -38 4 -60 11 -60 8 0 10 13 5 38 -3 20 -6 56
-6 80 0 63 -23 54 -45 -18 -10 -33 -21 -60 -25 -60 -4 0 -15 27 -25 60 -23 75
-45 81 -45 11z"/>
<path d="M7350 935 c-13 -41 -21 -78 -17 -81 3 -4 9 5 13 20 5 21 12 26 39 26
27 0 34 -5 39 -25 4 -14 10 -25 15 -25 5 0 -3 36 -17 80 -14 44 -31 80 -37 80
-6 0 -22 -34 -35 -75z m51 -18 c-4 -4 -15 -5 -24 -2 -13 6 -14 12 -4 38 l11
32 12 -30 c7 -17 9 -34 5 -38z"/>
<path d="M7520 930 c0 -47 4 -80 10 -80 6 0 10 16 10 35 0 33 2 35 35 35 33 0
35 -2 35 -35 0 -19 5 -35 10 -35 6 0 10 33 10 80 0 47 -4 80 -10 80 -5 0 -10
-16 -10 -35 0 -33 -2 -35 -35 -35 -33 0 -35 2 -35 35 0 19 -4 35 -10 35 -6 0
-10 -33 -10 -80z"/>
<path d="M7720 953 c0 -32 -3 -68 -6 -80 -4 -14 -2 -23 5 -23 7 0 11 22 11 60
0 33 3 60 8 60 4 0 15 -27 25 -60 10 -34 22 -58 27 -55 5 3 17 30 26 60 10 30
21 55 26 55 4 0 8 -27 8 -60 0 -38 4 -60 11 -60 8 0 9 11 5 31 -3 17 -6 53 -6
80 0 70 -22 64 -45 -11 -10 -33 -21 -60 -25 -60 -4 0 -15 27 -25 60 -24 79
-45 80 -45 3z"/>
<path d="M7983 1000 c-49 -20 -59 -96 -17 -129 28 -22 69 -28 79 -11 4 6 -8
10 -27 10 -42 0 -58 15 -58 53 0 47 16 67 56 67 21 0 33 4 29 10 -7 12 -32 12
-62 0z"/>
<path d="M8120 930 c0 -47 4 -80 10 -80 6 0 10 16 10 35 0 34 1 35 40 35 39 0
40 -1 40 -35 0 -19 5 -35 10 -35 6 0 10 33 10 80 0 47 -4 80 -10 80 -5 0 -10
-16 -10 -35 0 -34 -1 -35 -40 -35 -39 0 -40 1 -40 35 0 19 -4 35 -10 35 -6 0
-10 -33 -10 -80z"/>
<path d="M8353 1000 c-78 -32 -37 -168 44 -144 l28 8 -35 4 c-46 5 -60 18 -60
58 0 41 22 64 63 64 24 0 28 3 17 10 -18 12 -28 12 -57 0z"/>
<path d="M8500 930 l0 -80 40 0 c22 0 40 5 40 10 0 6 -13 10 -30 10 -25 0 -30
4 -30 25 0 21 5 25 30 25 17 0 30 5 30 10 0 6 -13 10 -30 10 -25 0 -30 4 -30
25 0 21 5 25 30 25 17 0 30 5 30 10 0 6 -18 10 -40 10 l-40 0 0 -80z"/>
<path d="M8650 930 c0 -47 4 -80 10 -80 6 0 10 29 10 67 l0 67 39 -64 c21 -35
43 -66 50 -68 8 -3 11 21 11 77 0 47 -4 81 -10 81 -6 0 -10 -27 -10 -62 l0
-61 -40 61 c-22 34 -44 62 -50 62 -6 0 -10 -32 -10 -80z"/>
<path d="M8840 1000 c0 -5 9 -10 20 -10 18 0 20 -7 20 -70 0 -40 4 -70 10 -70
6 0 10 30 10 70 0 68 1 70 25 70 14 0 25 5 25 10 0 6 -25 10 -55 10 -30 0 -55
-4 -55 -10z"/>
<path d="M9010 930 l0 -80 46 0 c27 0 43 4 39 10 -3 6 -19 10 -36 10 -24 0
-29 4 -29 25 0 21 5 25 30 25 17 0 30 5 30 10 0 6 -13 10 -30 10 -25 0 -30 4
-30 25 0 21 5 25 30 25 17 0 30 5 30 10 0 6 -18 10 -40 10 l-40 0 0 -80z"/>
<path d="M9170 930 c0 -47 4 -80 10 -80 6 0 10 16 10 35 0 19 5 35 10 35 15 0
50 -38 50 -55 0 -8 5 -15 10 -15 12 0 3 48 -13 68 -5 6 -20 12 -33 12 -20 0
-24 5 -24 29 0 36 7 41 39 30 18 -7 22 -14 17 -34 -7 -28 8 -35 18 -9 15 39
-13 64 -71 64 -22 0 -23 -4 -23 -80z"/>
<path d="M9463 998 c-30 -15 -47 -60 -36 -95 12 -35 55 -58 91 -47 27 8 26 8
-8 12 -64 7 -88 52 -54 100 10 14 25 22 45 22 18 0 28 4 24 10 -8 13 -34 12
-62 -2z"/>
<path d="M9625 985 c-35 -34 -34 -86 2 -115 50 -39 108 -7 108 61 0 71 -63
102 -110 54z m85 -26 c19 -44 3 -83 -33 -87 -39 -5 -57 14 -57 57 0 44 14 61
51 61 20 0 30 -7 39 -31z"/>
<path d="M9810 953 c0 -32 -3 -68 -6 -80 -4 -14 -2 -23 5 -23 7 0 11 23 11 62
0 70 9 68 35 -9 9 -29 20 -53 24 -53 4 0 16 27 26 60 10 33 22 60 27 60 4 0 8
-27 8 -60 0 -38 4 -60 11 -60 7 0 9 9 5 23 -3 12 -6 48 -6 80 0 77 -21 76 -46
-3 -10 -33 -21 -60 -24 -60 -3 0 -14 27 -24 60 -25 79 -46 80 -46 3z"/>
<path d="M6696 871 c-4 -5 -2 -12 3 -15 5 -4 12 -2 15 3 4 5 2 12 -3 15 -5 4
-12 2 -15 -3z"/>
<path d="M9336 871 c-4 -5 -2 -12 3 -15 5 -4 12 -2 15 3 4 5 2 12 -3 15 -5 4
-12 2 -15 -3z"/>
</g>
</svg>
