<svg width="643" height="477" viewBox="0 0 643 477" fill="none" xmlns="http://www.w3.org/2000/svg">
<path d="M334.341 309.956C353.119 317.777 370.939 327.725 387.452 339.607C412.199 357.433 455.514 399.209 486.5 370.946C527.253 333.846 529.363 212.861 540.606 162.278C543.258 150.363 546.062 138.358 549.257 126.414C561.314 81.9231 563.303 35.3814 591.456 0H643V477H6.80023e-06C58.2655 357.705 207.772 257.623 334.341 309.956Z" fill="#ECE6D8"/>
<g opacity="0.9">
<path d="M316.728 428.265C344.563 406.341 382.35 404.32 420.047 397.896C461.724 390.749 502.195 371.057 528.161 336.858C573.397 277.358 571.889 176.603 642.758 145.45V177.688C621.407 186.977 601.775 205.343 592.848 220.843C571.738 257.635 555.393 307.998 528.07 344.005C509.647 368.049 485.036 386.635 456.869 397.776C429.727 408.633 395.107 409.839 366.91 420.967C359.081 424.003 351.728 428.147 345.076 433.271C331.311 444.683 321.15 459.84 315.824 476.909H285.515C291.245 457.909 301.378 440.328 316.728 428.265Z" fill="#7F675B"/>
</g>
<g opacity="0.9">
<path d="M345.168 433.269C351.82 428.145 359.173 424.001 367.001 420.965C395.199 409.686 429.759 408.631 456.961 397.774C485.15 386.642 509.782 368.056 528.222 344.004C555.545 307.996 571.86 257.633 593 220.842C602.047 205.341 621.559 186.975 642.91 177.687V476.907H315.915C321.242 459.839 331.403 444.681 345.168 433.269V433.269Z" fill="#523617"/>
</g>
<g opacity="0.8">
<path d="M246.311 404.893C252.026 400.826 258.332 397.663 265.009 395.514C273.644 392.766 282.553 390.966 291.577 390.146C317.362 387.432 345.86 389.844 367.664 388.246C396.012 386.165 427.134 381.853 449.481 362.703C479.035 337.431 460.126 286.737 468.992 252.418C472.516 239.559 480.363 228.308 491.211 220.557C502.059 212.807 515.247 209.031 528.553 209.866C557.926 212.339 575.116 239.48 581.328 266.139C585.791 285.199 588.807 305.344 594.929 322.563C602.378 343.342 621.709 362.1 642.819 372.715V476.999H220.074C214.586 450.852 222.909 422.052 246.311 404.893Z" fill="#7F675B"/>
</g>
</svg>
