<svg width="209" height="233" viewBox="0 0 209 233" fill="none" xmlns="http://www.w3.org/2000/svg">
<path d="M63.0452 150.854C53.3252 138.543 43.3253 125.874 43.3253 104.369C43.3253 87.4978 50.1745 72.2226 61.2416 61.1688C72.3088 50.1151 87.6025 43.2742 104.494 43.2742C121.385 43.2742 136.679 50.1151 147.746 61.1688C158.813 72.2226 165.662 87.4978 165.662 104.369C165.662 125.871 155.662 138.542 145.942 150.854C137.508 161.538 128.768 173.439 129.342 187.793V208.856C129.342 212.457 127.86 215.747 125.475 218.131C123.834 219.764 121.791 220.972 119.513 221.575C118.794 224.673 117.386 227.397 115.043 229.45C109.643 234.183 99.3472 234.183 93.9468 229.45C91.6043 227.397 90.196 224.669 89.4769 221.575C87.1868 220.972 85.1365 219.77 83.5114 218.146C81.1321 215.77 79.6485 212.474 79.6485 208.856V187.793C80.2223 173.437 71.4822 161.537 63.048 150.854L63.0452 150.854ZM189.854 50.8196C191.645 49.7834 193.944 50.3932 194.981 52.1843C196.019 53.9736 195.408 56.2696 193.615 57.3057L172.758 69.3364C170.966 70.3726 168.668 69.7628 167.63 67.9717C166.593 66.1824 167.203 63.8864 168.997 62.8503L189.854 50.8196ZM3.76135 108.126C1.68473 108.126 0 106.443 0 104.369C0 102.295 1.68473 100.612 3.76135 100.612H27.8569C29.9335 100.612 31.6183 102.295 31.6183 104.369C31.6183 106.443 29.9335 108.126 27.8569 108.126H3.76135ZM181.138 108.126C179.062 108.126 177.377 106.443 177.377 104.369C177.377 102.295 179.062 100.612 181.138 100.612H205.239C207.315 100.612 209 102.295 209 104.369C209 106.443 207.315 108.126 205.239 108.126H181.138ZM15.379 57.3058C13.5875 56.2696 12.9769 53.9736 14.0126 52.1844C15.05 50.3951 17.3488 49.7852 19.1402 50.8197L39.9973 62.8504C41.7887 63.8866 42.3993 66.1826 41.3636 67.9718C40.3262 69.7611 38.0274 70.3709 36.236 69.3365L15.379 57.3058ZM169.006 145.893C167.214 144.857 166.603 142.561 167.639 140.772C168.677 138.983 170.975 138.373 172.767 139.407L193.624 151.438C195.415 152.474 196.026 154.77 194.99 156.56C193.953 158.349 191.654 158.959 189.863 157.924L169.006 145.893ZM50.8901 19.1178C49.8527 17.3286 50.4633 15.0325 52.2565 13.9965C54.048 12.9603 56.3468 13.5701 57.3841 15.3611L69.4294 36.1929C70.4669 37.9822 69.8563 40.2783 68.0631 41.3143C66.2716 42.3505 63.9728 41.7407 62.9355 39.9497L50.8901 19.1178ZM100.742 3.75679C100.742 1.68269 102.427 0 104.503 0C106.58 0 108.265 1.68269 108.265 3.75679V27.8281C108.265 29.9022 106.58 31.5849 104.503 31.5849C102.427 31.5849 100.742 29.9022 100.742 27.8281V3.75679ZM151.624 15.3608C152.661 13.5715 154.96 12.9617 156.751 13.9961C158.543 15.0323 159.154 17.3283 158.118 19.1175L146.073 39.9493C145.035 41.7386 142.736 42.3484 140.945 41.314C139.153 40.2778 138.543 37.9818 139.579 36.1926L151.624 15.3608ZM36.2539 139.412C38.0454 138.385 40.339 139.002 41.3677 140.791C42.3964 142.58 41.7788 144.871 39.9873 145.898L19.1267 157.926C17.3352 158.953 15.0417 158.336 14.013 156.547C12.9843 154.758 13.6018 152.467 15.3933 151.439L36.2539 139.412ZM95.4706 184.042C95.1365 164.635 90.7873 154.525 87.04 145.806L86.963 145.614C83.7912 138.229 81.027 131.714 81.027 121.795C81.027 120.562 81.6218 119.466 82.5403 118.783L92.654 109.825C93.8541 108.766 95.5511 108.614 96.8895 109.318L104.503 113.045L112.22 109.267C113.621 108.58 115.245 108.853 116.349 109.823L126.695 118.989C127.53 119.728 127.96 120.759 127.96 121.794C127.974 131.791 125.166 138.331 121.961 145.789C118.214 154.522 113.864 164.632 113.53 184.038H121.965C123.07 167.727 131.45 157.105 140.043 146.217C148.962 134.918 158.145 123.286 158.145 104.371C158.145 89.5745 152.138 76.1776 142.433 66.485C132.729 56.7925 119.316 50.7921 104.501 50.7921C89.6869 50.7921 76.2738 56.7925 66.5695 66.485C56.8651 76.1776 50.8575 89.5745 50.8575 104.371C50.8575 123.286 60.0405 134.916 68.9593 146.217C77.5529 157.105 85.9324 167.727 87.0382 184.038H95.4688L95.4706 184.042ZM106.008 184.042C106.342 163.112 111.02 152.228 115.054 142.842C117.743 136.597 120.119 131.067 120.418 123.44L113.258 117.097L106.148 120.576C105.143 121.063 103.931 121.102 102.853 120.576L95.7418 117.097L88.5813 123.44C88.877 130.99 91.209 136.485 93.8594 142.654L93.9451 142.842C97.9794 152.227 102.657 163.111 102.992 184.042L106.008 184.042ZM95.1486 201.774C93.072 201.774 91.3872 200.091 91.3872 198.017C91.3872 195.943 93.072 194.26 95.1486 194.26H113.859C115.936 194.26 117.62 195.943 117.62 198.017C117.62 200.091 115.936 201.774 113.859 201.774H95.1486ZM95.1486 211.798C93.072 211.798 91.3872 210.116 91.3872 208.042C91.3872 205.967 93.072 204.285 95.1486 204.285H113.859C115.936 204.285 117.62 205.967 117.62 208.042C117.62 210.116 115.936 211.798 113.859 211.798H95.1486ZM111.473 222.015H97.533C97.8882 222.725 98.336 223.334 98.8906 223.82C101.412 226.034 107.596 226.034 110.117 223.82C110.671 223.335 111.117 222.726 111.474 222.015H111.473ZM121.826 191.559H87.1797V208.865C87.1797 210.41 87.8165 211.821 88.8382 212.842C89.8599 213.862 91.2735 214.502 92.82 214.502H116.186C117.738 214.502 119.151 213.871 120.164 212.858C121.195 211.83 121.826 210.42 121.826 208.867L121.826 191.559Z" fill="#EBE5D9"/>
</svg>
