<svg width="23" height="24" viewBox="0 0 23 24" fill="none" xmlns="http://www.w3.org/2000/svg">
<g clip-path="url(#clip0_129_91)">
<path d="M9.58333 9.19412L14.6941 11.7452L9.58333 14.3059V9.19412ZM23 5.04167V18.4583C23 21.1043 20.8552 23.25 18.2083 23.25H4.79167C2.14571 23.25 0 21.1043 0 18.4583V5.04167C0 2.39571 2.14571 0.25 4.79167 0.25H18.2083C20.8552 0.25 23 2.39571 23 5.04167ZM19.1667 11.75C19.1475 7.79879 18.8571 6.2875 16.3655 6.11788C14.0626 5.96071 8.93454 5.96167 6.6355 6.11788C4.14575 6.2875 3.8525 7.79208 3.83333 11.75C3.8525 15.7012 4.14287 17.2125 6.63454 17.3821C8.93358 17.5383 14.0616 17.5393 16.3645 17.3821C18.8542 17.2125 19.1475 15.7079 19.1667 11.75Z" fill="#EBE5D9"/>
</g>
<defs>
<clipPath id="clip0_129_91">
<rect width="23" height="24" fill="white"/>
</clipPath>
</defs>
</svg>
